<svg width="18" height="18" viewBox="0 0 18 18" fill="none" xmlns="http://www.w3.org/2000/svg">
<path d="M9.95345 4.29519C9.95345 4.4794 9.95345 5.07984 9.95345 5.93287H12.8863L12.5683 8.54733H9.95345C9.95345 12.5793 9.95345 17.9824 9.95345 17.9824H6.48261C6.48261 17.9824 6.48261 12.6508 6.48261 8.54733H4.67407V5.93287H6.48261C6.48261 4.89604 6.48261 4.15878 6.48261 3.9535C6.48261 2.97545 6.40893 2.51139 6.82451 1.75349C7.2403 0.995631 8.41311 -0.00611174 10.4416 0.0180054C12.4706 0.0430015 13.3258 0.238189 13.3258 0.238189L12.8863 3.02457C12.8863 3.02457 11.5907 2.68246 10.9548 2.80438C10.3197 2.92634 9.95345 3.31756 9.95345 4.29519Z" fill="white"/>
</svg>
