<svg width="202" height="8" viewBox="0 0 202 8" fill="none" xmlns="http://www.w3.org/2000/svg">
<path d="M7.04411 7.83618H6.2211L5.3981 6.03413H1.65344L0.830437 7.83618H0.048584L3.21714 0.914673H3.95785L7.12641 7.83618H7.04411ZM3.5052 1.8157L1.94149 5.33788H5.11005L3.54635 1.8157H3.5052Z" fill="white"/>
<path d="M9.88342 0.955627V7.83617H9.10156V0.955627H9.88342Z" fill="white"/>
<path d="M21.1587 8L20.0887 6.8942C19.7595 7.22184 19.4303 7.50853 19.06 7.67236C18.6896 7.87713 18.2781 7.95904 17.8255 7.95904C17.3728 7.95904 17.2082 7.91809 16.9613 7.83618C16.7144 7.75427 16.4675 7.6314 16.2618 7.42662C16.056 7.2628 15.9326 7.05802 15.8091 6.81229C15.6857 6.56656 15.6445 6.32082 15.6445 6.03413C15.6445 5.58362 15.8091 5.17406 16.0972 4.84642C16.3852 4.51877 16.7967 4.23208 17.3317 4.0273C17.0848 3.74062 16.9202 3.49488 16.7967 3.24915C16.6733 3.00341 16.6321 2.75768 16.6321 2.47099C16.6321 2.1843 16.6733 2.02048 16.7556 1.8157C16.8379 1.61092 16.9613 1.4471 17.1259 1.28328C17.2905 1.11946 17.4551 1.03754 17.702 0.914677C17.9489 0.79181 18.1958 0.791809 18.4427 0.791809C18.6896 0.791809 18.8954 0.832766 19.1011 0.914677C19.3069 0.996588 19.4715 1.11945 19.6361 1.24232C19.8007 1.36519 19.883 1.52901 20.0064 1.73379C20.1299 1.93857 20.1299 2.14335 20.1299 2.34812C20.1299 2.79864 19.9653 3.16724 19.6772 3.45393C19.3892 3.74061 18.9777 3.98635 18.4839 4.15017L20.0476 5.74744C20.2122 5.54266 20.3356 5.29693 20.5002 5.01024C20.6648 4.72355 20.7883 4.47782 20.9117 4.19113L21.5702 4.47782C21.4056 4.80546 21.2821 5.13311 21.1175 5.4198C20.9529 5.70649 20.7883 5.99318 20.5825 6.23891L21.7759 7.46758L21.1998 7.91809L21.1587 8ZM17.7432 4.47782C17.2905 4.64164 16.9613 4.84642 16.7556 5.13311C16.5498 5.37884 16.4264 5.66553 16.4264 5.95222C16.4264 6.23891 16.4264 6.32082 16.5498 6.48464C16.6321 6.64847 16.7144 6.77133 16.8379 6.8942C16.9613 7.01707 17.1259 7.09898 17.2905 7.18089C17.4551 7.2628 17.6609 7.2628 17.8666 7.2628C18.1958 7.2628 18.4839 7.18089 18.7719 7.01707C19.06 6.85324 19.3069 6.64846 19.5949 6.36177L17.7432 4.47782ZM19.1011 1.77474C18.9365 1.61092 18.6896 1.48806 18.4016 1.48806C18.1135 1.48806 17.8255 1.56997 17.6609 1.77474C17.4551 1.97952 17.3728 2.1843 17.3728 2.51195C17.3728 2.83959 17.3728 2.71672 17.3728 2.79864C17.3728 2.88055 17.414 3.00341 17.4963 3.08532C17.5374 3.16724 17.6197 3.2901 17.702 3.41297C17.7843 3.53584 17.9078 3.6587 18.0312 3.78157C18.4839 3.61775 18.8131 3.45393 19.0188 3.24915C19.2246 3.04437 19.348 2.79863 19.348 2.47099C19.348 2.14334 19.2657 1.93857 19.06 1.77474H19.1011Z" fill="white"/>
<path d="M31.1581 1.0785C31.4462 1.16041 31.6519 1.28327 31.8577 1.40614C32.0634 1.56996 32.1869 1.73379 32.3103 1.93856C32.4338 2.14334 32.4749 2.38907 32.4749 2.63481C32.4749 2.88054 32.4749 3.04436 32.3926 3.24914C32.3103 3.41297 32.228 3.57679 32.1457 3.69965C32.0223 3.82252 31.94 3.94539 31.8165 4.0273C31.6931 4.10921 31.5696 4.19112 31.405 4.23208C31.6108 4.27303 31.8165 4.35494 31.9811 4.47781C32.1457 4.60068 32.3103 4.68259 32.4338 4.80546C32.5572 4.92832 32.6807 5.09215 32.763 5.29692C32.8453 5.46075 32.8864 5.70648 32.8864 5.91126C32.8864 6.11604 32.8453 6.48464 32.7218 6.68942C32.5984 6.89419 32.4338 7.13993 32.228 7.30375C32.0223 7.46757 31.7342 7.59044 31.4462 7.67235C31.117 7.75426 30.7878 7.79522 30.4174 7.79522H27.3312V0.914673H30.2528C30.582 0.914673 30.9112 0.955627 31.1993 1.03754L31.1581 1.0785ZM31.2404 3.74061C31.5285 3.53583 31.6931 3.20819 31.6931 2.79863C31.6931 2.38907 31.5696 2.1843 31.2816 1.97952C31.0347 1.77474 30.6232 1.69283 30.1294 1.69283H28.0307V4.06826H30.0882C30.5409 4.06826 30.9524 3.94539 31.2404 3.74061ZM31.6108 6.85324C31.8988 6.64846 32.0634 6.32081 32.0634 5.95221C32.0634 5.58361 31.8988 5.25597 31.6108 5.05119C31.2816 4.84641 30.8289 4.72354 30.2528 4.72354H28.0719V7.18088H30.3763C30.9112 7.18088 31.3227 7.05802 31.6108 6.85324Z" fill="white"/>
<path d="M35.0674 0.955627H35.8492V7.09897H39.7585V7.83617H35.0674V0.955627Z" fill="white"/>
<path d="M47.9062 5.74744C47.7416 6.157 47.4947 6.56655 47.1655 6.8942C46.8363 7.22184 46.466 7.46758 46.0545 7.67236C45.6018 7.87713 45.1492 7.95904 44.6142 7.95904C44.0793 7.95904 43.6266 7.87713 43.174 7.67236C42.7213 7.46758 42.3921 7.22184 42.0629 6.8942C41.7337 6.56655 41.528 6.19795 41.3634 5.74744C41.1988 5.29693 41.1165 4.84642 41.1165 4.39591C41.1165 3.94539 41.1988 3.45392 41.3634 3.04437C41.528 2.63481 41.7749 2.22526 42.1041 1.89761C42.4333 1.56997 42.8036 1.32423 43.2151 1.11945C43.6678 0.914677 44.1204 0.832764 44.6554 0.832764C45.1903 0.832764 45.643 0.914677 46.0956 1.11945C46.5071 1.32423 46.8775 1.56997 47.2067 1.89761C47.5359 2.22526 47.7416 2.59386 47.9062 3.04437C48.0708 3.45392 48.1531 3.94539 48.1531 4.39591C48.1531 4.84642 48.0708 5.33788 47.9062 5.74744ZM47.1655 3.2901C47.0421 2.96246 46.8363 2.63481 46.5894 2.38908C46.3425 2.14335 46.0545 1.93857 45.7253 1.77474C45.3961 1.61092 45.0257 1.52901 44.6142 1.52901C44.2027 1.52901 43.8735 1.61092 43.5032 1.73379C43.174 1.89761 42.8859 2.10239 42.639 2.34812C42.3921 2.59386 42.2275 2.9215 42.0629 3.24915C41.8983 3.57679 41.8572 3.94539 41.8572 4.35495C41.8572 4.76451 41.9395 5.13311 42.0629 5.46075C42.1864 5.7884 42.3921 6.11604 42.639 6.36177C42.8859 6.60751 43.174 6.81229 43.5032 6.97611C43.8324 7.13993 44.2027 7.22184 44.6142 7.22184C45.0257 7.22184 45.3549 7.13993 45.7253 7.01707C46.0956 6.8942 46.3425 6.64847 46.5894 6.40273C46.8363 6.157 47.0009 5.82935 47.1655 5.50171C47.289 5.17406 47.3713 4.80546 47.3713 4.39591C47.3713 3.98635 47.289 3.61775 47.1655 3.2901Z" fill="white"/>
<path d="M55.807 7.2628C55.6013 7.42662 55.3955 7.54949 55.1898 7.6314C54.984 7.75427 54.7371 7.83618 54.4491 7.87713C54.2022 7.91809 53.9141 7.95904 53.5849 7.95904C53.0911 7.95904 52.6385 7.87713 52.1858 7.67236C51.7743 7.50853 51.404 7.22184 51.0748 6.93515C50.7456 6.60751 50.5398 6.23891 50.3341 5.82935C50.1695 5.37884 50.0872 4.92833 50.0872 4.43686C50.0872 3.94539 50.1695 3.49488 50.3341 3.04437C50.4987 2.59386 50.7456 2.22526 51.0748 1.89761C51.404 1.56997 51.7332 1.32423 52.1858 1.11945C52.5973 0.914677 53.0911 0.832764 53.5849 0.832764C54.0787 0.832764 54.2022 0.832766 54.4491 0.914677C54.696 0.955632 54.9429 1.03754 55.1486 1.11945C55.3544 1.20137 55.5601 1.32423 55.7659 1.4471C55.9305 1.56997 56.1362 1.73379 56.3008 1.89761L55.7659 2.47099C55.4778 2.1843 55.1486 1.97952 54.8194 1.77474C54.4902 1.61092 54.0787 1.52901 53.5849 1.52901C53.0911 1.52901 52.8442 1.61092 52.515 1.73379C52.1858 1.89761 51.8978 2.06143 51.6509 2.34812C51.404 2.59386 51.2394 2.9215 51.0748 3.24915C50.9102 3.57679 50.869 3.94539 50.869 4.35495C50.869 4.76451 50.9513 5.13311 51.0748 5.46075C51.1982 5.7884 51.404 6.11604 51.6509 6.36177C51.8978 6.60751 52.1858 6.81229 52.515 6.97611C52.8442 7.13993 53.2146 7.18089 53.5849 7.18089C53.9553 7.18089 54.4491 7.09898 54.8194 6.93515C55.1486 6.77133 55.4778 6.5256 55.807 6.19795L56.3008 6.68942C56.1362 6.85324 55.9305 7.05802 55.7247 7.18089L55.807 7.2628Z" fill="white"/>
<path d="M64.2839 7.83617H63.2963L60.6215 4.51877L59.1401 5.99317V7.83617H58.3583V0.955627H59.1401V5.05119L63.0905 0.955627H64.0781L61.1153 3.94539L64.2016 7.83617H64.2839Z" fill="white"/>
<path d="M70.9915 7.2628C70.7857 7.42662 70.58 7.54949 70.3742 7.6314C70.1685 7.75427 69.9216 7.83618 69.6335 7.87713C69.3866 7.91809 69.0986 7.95904 68.7694 7.95904C68.2756 7.95904 67.8229 7.87713 67.3703 7.67236C66.9588 7.50853 66.5884 7.22184 66.2592 6.93515C65.93 6.60751 65.7243 6.23891 65.5185 5.82935C65.3539 5.37884 65.2716 4.92833 65.2716 4.43686C65.2716 3.94539 65.3539 3.49488 65.5185 3.04437C65.6831 2.59386 65.93 2.22526 66.2592 1.89761C66.5884 1.56997 66.9176 1.32423 67.3703 1.11945C67.7818 0.914677 68.2756 0.832764 68.7694 0.832764C69.2632 0.832764 69.3866 0.832766 69.6335 0.914677C69.8804 0.955632 70.1273 1.03754 70.3331 1.11945C70.5388 1.20137 70.7446 1.32423 70.9503 1.4471C71.1149 1.56997 71.3207 1.73379 71.4853 1.89761L70.9503 2.47099C70.6623 2.1843 70.3331 1.97952 70.0039 1.77474C69.6747 1.61092 69.2632 1.52901 68.7694 1.52901C68.2756 1.52901 68.0287 1.61092 67.6995 1.73379C67.3703 1.89761 67.0822 2.06143 66.8353 2.34812C66.5884 2.59386 66.4238 2.9215 66.2592 3.24915C66.0946 3.57679 66.0535 3.94539 66.0535 4.35495C66.0535 4.76451 66.1358 5.13311 66.2592 5.46075C66.3827 5.7884 66.5884 6.11604 66.8353 6.36177C67.0822 6.60751 67.3703 6.81229 67.6995 6.97611C68.0287 7.13993 68.399 7.18089 68.7694 7.18089C69.1397 7.18089 69.6335 7.09898 70.0039 6.93515C70.3331 6.77133 70.6623 6.5256 70.9915 6.19795L71.4853 6.68942C71.3207 6.85324 71.1149 7.05802 70.9092 7.18089L70.9915 7.2628Z" fill="white"/>
<path d="M74.3246 4.7645V7.87713H73.5427V0.996582H74.3246V4.06825H78.3161V0.996582H79.098V7.87713H78.3161V4.7645H74.3246Z" fill="white"/>
<path d="M88.151 7.83618H87.328L86.505 6.03413H82.7604L81.9374 7.83618H81.1555L84.3241 0.914673H85.0648L88.2333 7.83618H88.151ZM84.6121 1.8157L83.0484 5.33788H86.217L84.6533 1.8157H84.6121Z" fill="white"/>
<path d="M90.9903 0.955627V7.83617H90.2085V0.955627H90.9903Z" fill="white"/>
<path d="M98.7266 0.955627H99.4673V7.83617H98.8501L94.4059 2.1843V7.83617H93.6652V0.955627H94.4059L98.7678 6.48464V0.955627H98.7266Z" fill="white"/>
<path d="M111.072 7.2628C110.866 7.42662 110.66 7.54949 110.454 7.6314C110.249 7.75427 110.002 7.83618 109.714 7.87713C109.467 7.91809 109.179 7.95904 108.85 7.95904C108.356 7.95904 107.903 7.87713 107.45 7.67236C107.039 7.50853 106.669 7.22184 106.339 6.93515C106.01 6.60751 105.804 6.23891 105.599 5.82935C105.434 5.37884 105.352 4.92833 105.352 4.43686C105.352 3.94539 105.434 3.49488 105.599 3.04437C105.763 2.59386 106.01 2.22526 106.339 1.89761C106.669 1.56997 106.998 1.32423 107.45 1.11945C107.862 0.914677 108.356 0.832764 108.85 0.832764C109.343 0.832764 109.467 0.832766 109.714 0.914677C109.961 0.955632 110.208 1.03754 110.413 1.11945C110.619 1.20137 110.825 1.32423 111.031 1.4471C111.195 1.56997 111.401 1.73379 111.565 1.89761L111.031 2.47099C110.742 2.1843 110.413 1.97952 110.084 1.77474C109.755 1.61092 109.343 1.52901 108.85 1.52901C108.356 1.52901 108.109 1.61092 107.78 1.73379C107.45 1.89761 107.162 2.06143 106.916 2.34812C106.669 2.59386 106.504 2.9215 106.339 3.24915C106.175 3.57679 106.134 3.94539 106.134 4.35495C106.134 4.76451 106.216 5.13311 106.339 5.46075C106.463 5.7884 106.669 6.11604 106.916 6.36177C107.162 6.60751 107.45 6.81229 107.78 6.97611C108.109 7.13993 108.479 7.18089 108.85 7.18089C109.22 7.18089 109.714 7.09898 110.084 6.93515C110.413 6.77133 110.742 6.5256 111.072 6.19795L111.565 6.68942C111.401 6.85324 111.195 7.05802 110.989 7.18089L111.072 7.2628Z" fill="white"/>
<path d="M118.643 1.69283H114.446V4.0273H118.232V4.72354H114.446V7.13993H118.726V7.83617H113.664V0.955627H118.643V1.65187V1.69283Z" fill="white"/>
<path d="M125.639 7.83617L123.622 5.17406H121.647V7.83617H120.865V0.955627H123.828C124.199 0.955627 124.569 0.996584 124.857 1.11945C125.145 1.20136 125.433 1.36518 125.639 1.52901C125.845 1.69283 126.009 1.93856 126.133 2.1843C126.256 2.43003 126.297 2.71672 126.297 3.04436C126.297 3.37201 126.256 3.57679 126.174 3.82252C126.091 4.06826 125.968 4.23208 125.803 4.3959C125.639 4.55972 125.433 4.68259 125.186 4.80546C124.939 4.92832 124.692 5.01024 124.445 5.05119L126.585 7.87713H125.639V7.83617ZM125.104 2.06143C124.775 1.81569 124.363 1.69283 123.787 1.69283H121.647V4.47781H123.787C124.034 4.47781 124.281 4.47781 124.487 4.3959C124.692 4.31399 124.898 4.23208 125.063 4.10921C125.227 3.98634 125.351 3.82252 125.433 3.6587C125.515 3.49488 125.556 3.2901 125.556 3.04436C125.556 2.59385 125.392 2.26621 125.104 2.02047V2.06143Z" fill="white"/>
<path d="M131.235 7.83617H130.453V1.69283H128.149V0.955627H133.581V1.69283H131.276V7.83617H131.235Z" fill="white"/>
<path d="M136.502 0.955627V7.83617H135.721V0.955627H136.502Z" fill="white"/>
<path d="M144.156 1.69283H139.959V4.15017H143.704V4.84641H139.959V7.83617H139.177V0.955627H144.156V1.69283Z" fill="white"/>
<path d="M147.119 0.955627V7.83617H146.337V0.955627H147.119Z" fill="white"/>
<path d="M155.185 7.2628C154.979 7.42662 154.773 7.54949 154.567 7.6314C154.362 7.75427 154.115 7.83618 153.827 7.87713C153.58 7.91809 153.292 7.95904 152.962 7.95904C152.469 7.95904 152.016 7.87713 151.563 7.67236C151.152 7.50853 150.782 7.22184 150.452 6.93515C150.123 6.60751 149.917 6.23891 149.712 5.82935C149.547 5.37884 149.465 4.92833 149.465 4.43686C149.465 3.94539 149.547 3.49488 149.712 3.04437C149.876 2.59386 150.123 2.22526 150.452 1.89761C150.782 1.56997 151.111 1.32423 151.563 1.11945C151.975 0.914677 152.469 0.832764 152.962 0.832764C153.456 0.832764 153.58 0.832766 153.827 0.914677C154.074 0.955632 154.32 1.03754 154.526 1.11945C154.732 1.20137 154.938 1.32423 155.143 1.4471C155.308 1.56997 155.514 1.73379 155.678 1.89761L155.143 2.47099C154.855 2.1843 154.526 1.97952 154.197 1.77474C153.868 1.61092 153.456 1.52901 152.962 1.52901C152.469 1.52901 152.222 1.61092 151.893 1.73379C151.563 1.89761 151.275 2.06143 151.028 2.34812C150.782 2.59386 150.617 2.9215 150.452 3.24915C150.288 3.57679 150.247 3.94539 150.247 4.35495C150.247 4.76451 150.329 5.13311 150.452 5.46075C150.576 5.7884 150.782 6.11604 151.028 6.36177C151.275 6.60751 151.563 6.81229 151.893 6.97611C152.222 7.13993 152.592 7.18089 152.962 7.18089C153.333 7.18089 153.827 7.09898 154.197 6.93515C154.526 6.77133 154.855 6.5256 155.185 6.19795L155.678 6.68942C155.514 6.85324 155.308 7.05802 155.102 7.18089L155.185 7.2628Z" fill="white"/>
<path d="M164.155 7.83618H163.332L162.509 6.03413H158.765L157.942 7.83618H157.16L160.328 0.914673H161.069L164.238 7.83618H164.155ZM160.658 1.8157L159.094 5.33788H162.262L160.699 1.8157H160.658Z" fill="white"/>
<path d="M167.9 7.83617H167.118V1.69283H164.814V0.955627H170.246V1.69283H167.941V7.83617H167.9Z" fill="white"/>
<path d="M173.167 0.955627V7.83617H172.385V0.955627H173.167Z" fill="white"/>
<path d="M182.344 5.74744C182.179 6.157 181.932 6.56655 181.603 6.8942C181.274 7.22184 180.903 7.46758 180.492 7.67236C180.039 7.87713 179.587 7.95904 179.052 7.95904C178.517 7.95904 178.064 7.87713 177.611 7.67236C177.159 7.46758 176.83 7.22184 176.5 6.8942C176.171 6.56655 175.965 6.19795 175.801 5.74744C175.636 5.29693 175.554 4.84642 175.554 4.39591C175.554 3.94539 175.636 3.45392 175.801 3.04437C175.965 2.63481 176.212 2.22526 176.542 1.89761C176.871 1.56997 177.241 1.32423 177.653 1.11945C178.105 0.914677 178.558 0.832764 179.093 0.832764C179.628 0.832764 180.08 0.914677 180.533 1.11945C180.945 1.32423 181.315 1.56997 181.644 1.89761C181.973 2.22526 182.179 2.59386 182.344 3.04437C182.508 3.45392 182.591 3.94539 182.591 4.39591C182.591 4.84642 182.508 5.33788 182.344 5.74744ZM181.562 3.2901C181.438 2.96246 181.233 2.63481 180.986 2.38908C180.739 2.14335 180.451 1.93857 180.122 1.77474C179.792 1.61092 179.422 1.52901 179.011 1.52901C178.599 1.52901 178.27 1.61092 177.9 1.73379C177.57 1.89761 177.282 2.10239 177.035 2.34812C176.788 2.59386 176.624 2.9215 176.459 3.24915C176.295 3.57679 176.254 3.94539 176.254 4.35495C176.254 4.76451 176.336 5.13311 176.459 5.46075C176.583 5.7884 176.788 6.11604 177.035 6.36177C177.282 6.60751 177.57 6.81229 177.9 6.97611C178.229 7.13993 178.599 7.22184 179.011 7.22184C179.422 7.22184 179.751 7.13993 180.122 7.01707C180.492 6.8942 180.739 6.64847 180.986 6.40273C181.233 6.157 181.397 5.82935 181.562 5.50171C181.685 5.17406 181.768 4.80546 181.768 4.39591C181.768 3.98635 181.685 3.61775 181.562 3.2901Z" fill="white"/>
<path d="M189.956 0.955627H190.697V7.83617H190.08L185.636 2.1843V7.83617H184.895V0.955627H185.636L189.998 6.48464V0.955627H189.956Z" fill="white"/>
<path d="M193.989 3.12628C194.03 3.24915 194.154 3.37201 194.277 3.49488C194.401 3.61775 194.607 3.69966 194.853 3.78157C195.1 3.86348 195.429 3.94539 195.8 4.0273C196.582 4.19113 197.158 4.43686 197.487 4.72355C197.857 5.01024 198.022 5.46075 198.022 5.99318C198.022 6.5256 197.981 6.56655 197.857 6.81229C197.734 7.05802 197.569 7.2628 197.364 7.42662C197.158 7.59045 196.911 7.71331 196.623 7.83618C196.335 7.91809 196.006 7.95904 195.676 7.95904C195.141 7.95904 194.606 7.87713 194.154 7.67236C193.701 7.46758 193.249 7.22184 192.837 6.85324L193.331 6.27986C193.701 6.60751 194.072 6.85324 194.442 7.01707C194.812 7.18089 195.224 7.2628 195.718 7.2628C196.211 7.2628 196.541 7.13993 196.829 6.93515C197.117 6.73038 197.24 6.44369 197.24 6.07509C197.24 5.70649 197.24 5.74744 197.158 5.62457C197.117 5.50171 196.993 5.37884 196.87 5.25597C196.746 5.13311 196.541 5.0512 196.335 4.96929C196.129 4.88737 195.8 4.80546 195.429 4.72355C195.018 4.64164 194.689 4.55973 194.401 4.43686C194.113 4.31399 193.866 4.19113 193.66 4.0273C193.454 3.86348 193.331 3.69966 193.249 3.49488C193.166 3.2901 193.125 3.04437 193.125 2.75768C193.125 2.47099 193.166 2.22526 193.29 1.97952C193.413 1.73379 193.578 1.56997 193.783 1.36519C193.989 1.20137 194.236 1.0785 194.524 0.955632C194.812 0.832765 195.1 0.832764 195.429 0.832764C195.923 0.832764 196.376 0.914675 196.746 1.03754C197.117 1.16041 197.487 1.36519 197.857 1.65188L197.405 2.26621C197.075 2.02048 196.746 1.8157 196.417 1.69283C196.088 1.56997 195.759 1.52901 195.388 1.52901C195.018 1.52901 194.977 1.52901 194.771 1.61092C194.606 1.65188 194.442 1.73379 194.318 1.85665C194.195 1.93857 194.072 2.06143 194.03 2.22526C193.989 2.38908 193.907 2.51194 193.907 2.67577C193.907 2.83959 193.907 3.00341 193.989 3.12628Z" fill="white"/>
<path d="M200.203 7.83617V6.81228H201.108V7.83617H200.203ZM201.108 0.955627V1.52901L200.861 5.91126H200.45L200.203 1.52901V0.955627H201.108Z" fill="white"/>
</svg>
