<svg width="241" height="35" viewBox="0 0 241 35" fill="none" xmlns="http://www.w3.org/2000/svg">
<path d="M101.489 31.2662C100.583 31.9625 99.5958 32.5768 98.5259 33.0683C97.456 33.5597 96.3038 33.9693 95.0282 34.215C93.7525 34.4608 92.3534 34.6246 90.8308 34.6246C88.4441 34.6246 86.222 34.1741 84.2057 33.314C82.1893 32.4539 80.4199 31.2662 78.9385 29.7509C77.457 28.2355 76.3048 26.4744 75.4407 24.4266C74.6177 22.3788 74.165 20.1672 74.165 17.8328C74.165 15.4983 74.5765 13.3276 75.3995 11.2799C76.2225 9.23208 77.3747 7.43004 78.8973 5.91468C80.4199 4.39932 82.1482 3.17065 84.2057 2.26963C86.2632 1.3686 88.5264 0.959045 91.0366 0.959045C93.5468 0.959045 93.876 1.08191 95.1105 1.32765C96.345 1.57338 97.456 1.94198 98.4848 2.39249C99.5135 2.843 100.46 3.37543 101.324 3.98976C102.188 4.6041 103.011 5.30034 103.793 6.03754L100.09 10.256C98.7728 9.0273 97.4149 8.08533 95.9335 7.34812C94.4521 6.61092 92.8061 6.24232 90.9543 6.24232C89.1025 6.24232 87.9503 6.52901 86.6335 7.14335C85.3167 7.75768 84.1645 8.57679 83.2181 9.60068C82.2716 10.6246 81.4898 11.8532 80.996 13.2457C80.461 14.6382 80.2141 16.1536 80.2141 17.7509C80.2141 19.3481 80.461 20.8635 80.996 22.2969C81.5309 23.6894 82.2716 24.959 83.2181 25.9829C84.1645 27.0478 85.3167 27.8669 86.6335 28.4812C87.9503 29.0956 89.3906 29.3823 90.9543 29.3823C92.518 29.3823 94.6578 29.0137 96.0981 28.2355C97.5383 27.4573 98.9374 26.4334 100.337 25.1638L104.04 28.8908C103.217 29.7918 102.312 30.57 101.406 31.2662H101.489Z" fill="white"/>
<path d="M135.479 6.7338H117.002V15.0888H133.38V20.2492H117.002V28.9318H135.726V34.0922H111.282V1.57339H135.479V6.7338Z" fill="white"/>
<path d="M164.736 34.0922L156.671 22.7475H149.47V34.0922H143.791V1.57339H158.358C160.21 1.57339 161.897 1.81913 163.42 2.3106C164.942 2.80206 166.218 3.45735 167.247 4.35838C168.275 5.2594 169.098 6.32425 169.633 7.59387C170.209 8.8635 170.456 10.2969 170.456 11.8942C170.456 13.4915 170.251 14.4744 169.88 15.5393C169.51 16.6041 168.934 17.5461 168.275 18.3652C167.576 19.1843 166.753 19.8806 165.806 20.4539C164.86 21.0273 163.79 21.4778 162.638 21.7645L171.485 34.0922H164.695H164.736ZM162.844 8.08534C161.65 7.18432 160.004 6.69285 157.823 6.69285H149.429V17.669H157.864C159.922 17.669 161.568 17.1775 162.802 16.1946C164.037 15.2116 164.613 13.8601 164.613 12.1809C164.613 10.5017 164.037 9.02732 162.844 8.08534Z" fill="white"/>
<path d="M192.389 34.0922H186.587V6.85667H176.217V1.57339H202.759V6.85667H192.389V34.0922Z" fill="white"/>
<path d="M221.647 30.2423C221.195 31.1843 220.536 32.0034 219.713 32.6178C218.89 33.273 217.903 33.7236 216.791 34.0512C215.68 34.3788 214.487 34.5427 213.211 34.5427C211.936 34.5427 209.631 34.215 207.821 33.6007C206.01 32.9864 204.323 32.0853 202.759 30.8567L205.269 27.0478C206.627 28.0307 207.985 28.8089 209.343 29.3003C210.742 29.7918 212.059 30.0785 213.335 30.0785C214.611 30.0785 215.475 29.8328 216.174 29.3413C216.833 28.8498 217.162 28.2355 217.162 27.4164V27.3345C217.162 26.884 216.997 26.4744 216.709 26.1058C216.421 25.7782 216.01 25.4505 215.475 25.2048C214.981 24.9591 214.364 24.7133 213.705 24.5085C213.047 24.3038 212.347 24.099 211.607 23.8942C210.701 23.6075 209.796 23.3208 208.891 22.9522C207.985 22.6246 207.162 22.1741 206.422 21.6416C205.681 21.1092 205.105 20.413 204.611 19.6348C204.158 18.8567 203.911 17.8737 203.911 16.686V16.6041C203.911 15.4573 204.117 14.4335 204.57 13.4915C205.023 12.5495 205.64 11.7713 206.422 11.116C207.204 10.4608 208.15 9.96929 209.22 9.64164C210.29 9.314 211.442 9.15018 212.635 9.15018C213.829 9.15018 215.763 9.39591 217.368 9.88738C218.972 10.3788 220.413 11.0751 221.73 11.9352L219.507 15.9488C218.314 15.2526 217.121 14.6792 215.927 14.2696C214.693 13.8601 213.582 13.6553 212.553 13.6553C211.524 13.6553 210.619 13.901 210.002 14.3515C209.384 14.8021 209.096 15.4164 209.096 16.1126V16.1945C209.096 16.6451 209.261 17.0137 209.549 17.3413C209.878 17.6689 210.29 17.9556 210.784 18.2423C211.277 18.4881 211.895 18.7338 212.553 18.9795C213.211 19.2253 213.911 19.43 214.652 19.6348C215.557 19.9215 216.462 20.2492 217.368 20.6178C218.273 20.9864 219.096 21.4369 219.837 21.9693C220.577 22.5017 221.153 23.157 221.647 23.9352C222.1 24.7133 222.347 25.6553 222.347 26.7611V26.843C222.347 28.1536 222.1 29.2594 221.647 30.2423Z" fill="white"/>
<path d="M33.6731 1.94199H27.0479L22.0688 13.5734H13.4684L5.93791 6.0785C6.26711 5.66895 6.43171 5.13653 6.43171 4.56315C6.43171 3.1297 5.2795 1.98294 3.83925 1.98294C2.399 1.98294 1.24679 3.1297 1.24679 4.52219C1.24679 5.91468 2.399 7.1024 3.83925 7.1024C5.2795 7.1024 4.49765 7.02048 4.7857 6.93857L12.8923 15.0068H21.4515L20.3405 17.628H6.22596C5.89676 16.5631 4.90915 15.744 3.7158 15.744C2.52245 15.744 1.12334 16.8908 1.12334 18.3242C1.12334 19.7577 2.27554 20.9044 3.7158 20.9044C5.15605 20.9044 5.89676 20.1263 6.22596 19.0205H19.7232L18.6121 21.6416H12.6042L4.49765 29.7099C4.2096 29.587 3.8804 29.5461 3.5512 29.5461C2.11094 29.5461 0.95874 30.6928 0.95874 32.1263C0.95874 33.5597 2.11094 34.7065 3.5512 34.7065C4.99145 34.7065 6.14366 33.5597 6.14366 32.1263C6.14366 30.6928 5.93791 31.0205 5.64986 30.6109L13.1803 23.116H17.9537L12.9746 34.7474H20.2993L23.3033 27.4573H37.1297L40.1337 34.7474H47.6641L33.6731 1.94199ZM25.9369 21.0683L30.2988 10.5017L34.6607 21.0683H25.978H25.9369Z" fill="#CFA935"/>
<path d="M54.3307 34.5427V2.0239H61.532V34.5427H54.3307Z" fill="#CFA935"/>
<path d="M226.955 3.29353V10.1331H225.063V3.29353H222.429V1.57339H229.589V3.33449H226.955V3.29353Z" fill="white"/>
<path d="M238.107 10.1741V4.56316L235.679 8.24916H235.638L233.251 4.60411V10.1741H231.4V1.57339H233.457L235.72 5.21845L237.984 1.57339H240.041V10.1741H238.148H238.107Z" fill="white"/>
</svg>
