<svg width="18" height="18" viewBox="0 0 18 18" fill="none" xmlns="http://www.w3.org/2000/svg">
<g clip-path="url(#clip0_4_110)">
<path fill-rule="evenodd" clip-rule="evenodd" d="M4.09584 17.5858V5.99954H0.245215V17.5858H4.09584V17.5858ZM2.17093 4.41821C3.5133 4.41821 4.3495 3.52777 4.3495 2.41596C4.32411 1.27942 3.5133 0.414124 2.19611 0.414124C0.878695 0.414159 0.0175781 1.27946 0.0175781 2.41599C0.0175781 3.52781 0.853312 4.41824 2.14559 4.41824L2.17093 4.41821ZM6.22702 17.5858C6.22702 17.5858 6.27753 7.08664 6.22702 5.99957H10.0782V7.67983H10.0527C10.5591 6.88917 11.4714 5.7275 13.5486 5.7275C16.0829 5.7275 17.9824 7.38346 17.9824 10.9423V17.5858H14.1318V11.3875C14.1318 9.83006 13.5746 8.76728 12.1807 8.76728C11.1171 8.76728 10.4832 9.48377 10.2049 10.1763C10.103 10.4229 10.0782 10.7691 10.0782 11.1154V17.5858H6.22702Z" fill="white"/>
</g>
<defs>
<clipPath id="clip0_4_110">
<rect width="18" height="18" fill="white"/>
</clipPath>
</defs>
</svg>
