<svg width="214" height="30" viewBox="0 0 214 30" fill="none" xmlns="http://www.w3.org/2000/svg">
<g clip-path="url(#clip0_7_714)">
<path d="M85.2242 24.277C83.9346 24.9696 82.4239 25.2977 80.6184 25.2977C78.813 25.2977 77.9287 25.0425 76.7496 24.4957C75.5706 23.949 74.5389 23.2199 73.6914 22.2722C72.844 21.3244 72.1439 20.2309 71.7018 18.9915C71.2228 17.7521 71.0017 16.4034 71.0017 14.9453C71.0017 13.4872 71.2228 12.175 71.7018 10.9356C72.1808 9.69623 72.844 8.60267 73.6914 7.69137C74.5389 6.78007 75.5706 6.05103 76.7496 5.50425C77.9287 4.95747 79.2183 4.70231 80.6184 4.70231C82.0186 4.70231 83.7872 5.03038 85.0768 5.68651C86.4032 6.34265 87.6191 7.2175 88.7982 8.2746L92.1143 4.52005C91.4142 3.86391 90.6773 3.24423 89.9036 2.69745C89.1298 2.15067 88.2824 1.67679 87.3612 1.27582C86.4401 0.874848 85.4452 0.583232 84.3399 0.328068C83.2345 0.109356 82.0186 0 80.6921 0C78.4445 0 76.418 0.400972 74.5757 1.16646C72.7335 1.96841 71.1491 3.02552 69.8226 4.41069C68.4962 5.79587 67.4277 7.3633 66.6908 9.1859C65.9538 11.0085 65.5854 12.9405 65.5854 15.0182C65.5854 17.096 65.9538 19.0644 66.7276 20.887C67.4645 22.7096 68.533 24.277 69.8595 25.6258C71.1859 26.9745 72.7335 28.0316 74.5757 28.7971C76.3812 29.5626 78.3709 29.9635 80.5079 29.9635C82.645 29.9635 83.124 29.8542 84.2662 29.599C85.4084 29.3803 86.4401 29.0158 87.3981 28.5784C88.356 28.1409 89.2403 27.5942 90.0509 26.9745C90.8616 26.3548 91.6722 25.6622 92.4091 24.8603L89.093 21.5431C87.8402 22.7096 86.5875 23.6209 85.2979 24.277H85.2242Z" fill="white"/>
<path d="M103.868 17.1325H118.533V12.5395H103.868V5.10333H120.412V0.510376H98.7834V29.4533H120.633V24.8603H103.868V17.1325Z" fill="white"/>
<path d="M147.604 17.3147C148.451 16.8044 149.188 16.1847 149.815 15.4557C150.441 14.7267 150.92 13.8883 151.252 12.9405C151.583 11.9928 151.768 10.8992 151.768 9.69628C151.768 8.49337 151.51 6.99883 151.031 5.86882C150.515 4.73881 149.815 3.7546 148.894 2.98911C147.972 2.18717 146.83 1.60394 145.467 1.16651C144.104 0.729088 142.593 0.510376 140.935 0.510376H127.892V29.4533H132.976V19.3561H139.424L146.646 29.4533H152.726L144.804 18.4812C145.835 18.1896 146.793 17.8251 147.641 17.3147H147.604ZM132.939 14.836V5.10333H140.456C142.372 5.10333 143.883 5.5043 144.951 6.3427C146.02 7.14464 146.535 8.38401 146.535 9.9879C146.535 11.5918 145.983 12.6853 144.914 13.5602C143.809 14.435 142.372 14.8725 140.493 14.8725H132.939V14.836Z" fill="white"/>
<path d="M156.889 5.21268H166.174V29.4533H171.369V5.21268H180.655V0.510376H156.889V5.21268Z" fill="white"/>
<path d="M195.982 18.627C195.319 18.1531 194.582 17.7522 193.772 17.4241C192.961 17.096 192.15 16.8044 191.34 16.5492C190.714 16.367 190.087 16.1483 189.461 15.966C188.834 15.7837 188.319 15.5286 187.876 15.3099C187.434 15.0912 187.029 14.7995 186.771 14.5079C186.476 14.2163 186.366 13.8882 186.366 13.4873V13.4144C186.366 12.7947 186.624 12.2479 187.176 11.8469C187.729 11.446 188.466 11.2272 189.461 11.2272C190.456 11.2272 191.377 11.4095 192.482 11.774C193.587 12.1385 194.656 12.6489 195.688 13.2686L197.677 9.69627C196.498 8.93077 195.209 8.31109 193.772 7.87367C192.335 7.43624 190.935 7.21753 189.534 7.21753C188.134 7.21753 187.434 7.36334 186.476 7.65495C185.518 7.94657 184.671 8.38399 183.971 8.96723C183.271 9.55046 182.718 10.243 182.313 11.0814C181.907 11.9198 181.723 12.8311 181.723 13.8518V13.9247C181.723 14.9818 181.944 15.8567 182.35 16.5492C182.755 17.2418 183.308 17.8615 183.971 18.3354C184.634 18.8093 185.371 19.2102 186.181 19.5019C186.992 19.7935 187.803 20.0851 188.613 20.3402C189.24 20.5225 189.866 20.7048 190.492 20.887C191.082 21.0693 191.635 21.288 192.077 21.5067C192.519 21.7254 192.887 22.017 193.182 22.3087C193.44 22.6003 193.587 22.9648 193.587 23.4022V23.4751C193.587 24.2042 193.293 24.7509 192.703 25.1884C192.114 25.6258 191.266 25.8445 190.161 25.8445C189.055 25.8445 187.84 25.6258 186.587 25.1519C185.334 24.7145 184.118 24.0219 182.939 23.1471L180.691 26.5371C182.092 27.6307 183.602 28.4326 185.223 28.9794C186.845 29.5262 188.466 29.8178 190.05 29.8178C191.635 29.8178 192.261 29.672 193.256 29.3803C194.251 29.0887 195.135 28.6513 195.872 28.1045C196.609 27.5577 197.198 26.8287 197.604 25.9903C198.009 25.1519 198.23 24.1313 198.23 22.9648V22.8919C198.23 21.9077 198.009 21.0693 197.604 20.3767C197.198 19.6841 196.646 19.1009 195.982 18.627Z" fill="white"/>
<path d="M23.3233 0.838379L18.865 11.1907H11.1642L4.42147 4.52003C4.71623 4.15551 4.86362 3.68163 4.86362 3.17131C4.86362 1.89549 3.83194 0.874831 2.54234 0.874831C1.25274 0.874831 0.221055 1.89549 0.221055 3.13486C0.221055 4.37422 1.25274 5.43133 2.54234 5.43133C3.83194 5.43133 3.13187 5.35843 3.38979 5.28552L10.6484 12.4666H18.3123L17.3175 14.7995H4.67939C4.38462 13.8517 3.50032 13.1227 2.4318 13.1227C1.36327 13.1227 0.110518 14.1434 0.110518 15.4192C0.110518 16.695 1.1422 17.7157 2.4318 17.7157C3.7214 17.7157 4.38462 17.0231 4.67939 16.0389H16.7648L15.77 18.3718H10.3905L3.13187 25.5528C2.87395 25.4435 2.57918 25.407 2.28442 25.407C0.994815 25.407 -0.0368652 26.4277 -0.0368652 27.7035C-0.0368652 28.9793 0.994815 30 2.28442 30C3.57402 30 4.6057 28.9793 4.6057 27.7035C4.6057 26.4277 4.42147 26.7193 4.16355 26.3548L10.9063 19.6841H15.1804L10.7221 30.0364H17.2806L19.9704 23.548H32.3505L35.0403 30.0364H41.783L29.2555 0.838379H23.3233ZM22.3285 17.8615L26.2341 8.45685L30.1398 17.8615H22.3653H22.3285Z" fill="#CFA935"/>
<path d="M54.2001 0.911255H47.7521V29.8541H54.2001V0.911255Z" fill="#CFA935"/>
<path d="M198.267 2.04136H200.625V8.1653H202.32V2.04136H204.678V0.510376H198.267V2.04136Z" fill="white"/>
<path d="M212.158 0.510376L210.131 3.71815L208.068 0.510376H206.262V8.1653H207.92V3.17137L210.057 6.4156H210.131L212.305 3.13492V8.1653H214V0.510376H212.158Z" fill="white"/>
</g>
<defs>
<clipPath id="clip0_7_714">
<rect width="214" height="30" fill="white"/>
</clipPath>
</defs>
</svg>
