<svg width="534" height="519" viewBox="0 0 534 519" fill="none" xmlns="http://www.w3.org/2000/svg">
<g opacity="0.6" clip-path="url(#clip0_7_483)">
<g style="mix-blend-mode:screen">
<path d="M42.2334 126.622H169.261L222.8 74.8167H317.221L391.283 3.19937L390.71 2.62512L316.894 74.0374H222.473L168.933 125.802H42.2334V126.622Z" fill="url(#paint0_radial_7_483)"/>
<path d="M42.3972 123.177C40.6768 123.177 39.243 124.53 39.243 126.212C39.243 127.894 40.6358 129.248 42.3972 129.248C44.1587 129.248 45.5514 127.894 45.5514 126.212C45.5514 124.53 44.1587 123.177 42.3972 123.177Z" fill="url(#paint1_radial_7_483)"/>
<path d="M388.662 0.902394C389.89 -0.287126 391.898 -0.287126 393.086 0.902394C394.315 2.09191 394.315 4.01976 393.086 5.20928C391.857 6.3988 389.85 6.3988 388.662 5.20928C387.433 4.01976 387.433 2.09191 388.662 0.902394Z" fill="url(#paint2_radial_7_483)"/>
<path d="M434.705 516.375H520.482V515.555H435.032L387.801 469.861H293.38L239.841 418.055H109.987L62.1826 371.828L61.5681 372.402L109.659 418.875H239.473L293.012 470.681H387.433L434.705 516.375Z" fill="url(#paint3_radial_7_483)"/>
<path d="M64.2308 370.064C63.0019 368.874 60.9947 368.874 59.8068 370.064C58.5779 371.253 58.5779 373.181 59.8068 374.371C61.0357 375.56 63.0428 375.56 64.2308 374.371C65.4597 373.181 65.4597 371.253 64.2308 370.064Z" fill="url(#paint4_radial_7_483)"/>
<path d="M520.318 512.929C522.039 512.929 523.472 514.283 523.472 515.965C523.472 517.646 522.08 519 520.318 519C518.557 519 517.164 517.646 517.164 515.965C517.164 514.283 518.557 512.929 520.318 512.929Z" fill="url(#paint5_radial_7_483)"/>
<path d="M3.35899 187.247L46.6164 145.409H195.273L239.759 102.422H299.525L323.448 125.556H504.465V124.736H323.775L299.853 101.601H239.432L194.945 144.588H46.2478L2.74454 186.673L3.35899 187.247Z" fill="url(#paint6_radial_7_483)"/>
<path d="M0.942209 184.704C-0.286696 185.893 -0.286696 187.821 0.942209 189.011C2.17111 190.2 4.17834 190.2 5.36629 189.011C6.59519 187.821 6.59519 185.893 5.36629 184.704C4.13738 183.514 2.13015 183.514 0.942209 184.704Z" fill="url(#paint7_radial_7_483)"/>
<path d="M504.302 122.11C506.022 122.11 507.456 123.464 507.456 125.146C507.456 126.828 506.063 128.181 504.302 128.181C502.54 128.181 501.147 126.828 501.147 125.146C501.147 123.464 502.54 122.11 504.302 122.11Z" fill="url(#paint8_radial_7_483)"/>
<path d="M121.662 407.677H171.924L209.119 371.746H281.911L318.163 336.675H426.799V335.896H317.795L281.583 370.925H208.75L171.596 406.857H122.03L70.9488 357.471L70.3753 358.046L121.662 407.677Z" fill="url(#paint9_radial_7_483)"/>
<path d="M72.997 355.749C71.7681 354.559 69.7609 354.559 68.573 355.749C67.3441 356.938 67.3441 358.866 68.573 360.055C69.8019 361.245 71.8091 361.245 72.997 360.055C74.2259 358.866 74.2259 356.938 72.997 355.749Z" fill="url(#paint10_radial_7_483)"/>
<path d="M426.635 333.23C428.355 333.23 429.789 334.583 429.789 336.265C429.789 337.947 428.396 339.3 426.635 339.3C424.873 339.3 423.481 337.947 423.481 336.265C423.481 334.583 424.873 333.23 426.635 333.23Z" fill="url(#paint11_radial_7_483)"/>
<path d="M8.76628 206.894L50.9996 166.082H192.569L239.923 120.265H283.222L317.918 153.817H454.203V153.038H318.286L283.549 119.444H239.595L192.242 165.261H50.6719L8.19278 206.32L8.76628 206.894Z" fill="url(#paint12_radial_7_483)"/>
<path d="M454.08 156.483C455.801 156.483 457.234 155.13 457.234 153.448C457.234 151.766 455.842 150.413 454.08 150.413C452.319 150.413 450.926 151.766 450.926 153.448C450.926 155.13 452.319 156.483 454.08 156.483Z" fill="url(#paint13_radial_7_483)"/>
<path d="M10.8144 208.658C9.5855 209.848 7.57827 209.848 6.39033 208.658C5.16142 207.469 5.16142 205.541 6.39033 204.351C7.61923 203.162 9.62646 203.162 10.8144 204.351C12.0433 205.541 12.0433 207.469 10.8144 208.658Z" fill="url(#paint14_radial_7_483)"/>
<path d="M128.052 367.644H189.579L260.856 298.693H407.873L443.307 332.984L443.921 332.409L408.201 297.913H260.528L189.251 366.823H128.421L93.4378 333.025H30.3949V333.804H93.11L128.052 367.644Z" fill="url(#paint15_radial_7_483)"/>
<path d="M30.5588 330.359C28.8384 330.359 27.4047 331.712 27.4047 333.394C27.4047 335.076 28.7974 336.429 30.5588 336.429C32.3203 336.429 33.713 335.076 33.713 333.394C33.713 331.712 32.3203 330.359 30.5588 330.359Z" fill="url(#paint16_radial_7_483)"/>
<path d="M445.724 330.44C446.953 331.63 446.953 333.558 445.724 334.747C444.495 335.937 442.488 335.937 441.3 334.747C440.071 333.558 440.071 331.63 441.3 330.44C442.529 329.251 444.536 329.251 445.724 330.44Z" fill="url(#paint17_radial_7_483)"/>
<path d="M114.493 381.754H148.329V380.934H114.821L76.315 343.689L75.7415 344.264L114.493 381.754Z" fill="url(#paint18_radial_7_483)"/>
<path d="M78.3632 341.967C77.1343 340.777 75.1271 340.777 73.9392 341.967C72.7103 343.156 72.7103 345.084 73.9392 346.273C75.1681 347.463 77.1753 347.463 78.3632 346.273C79.5921 345.084 79.5921 343.156 78.3632 341.967Z" fill="url(#paint19_radial_7_483)"/>
<path d="M148.165 378.308C149.885 378.308 151.319 379.662 151.319 381.344C151.319 383.026 149.926 384.379 148.165 384.379C146.404 384.379 145.011 383.026 145.011 381.344C145.011 379.662 146.404 378.308 148.165 378.308Z" fill="url(#paint20_radial_7_483)"/>
<path d="M8.76623 231.218L54.0718 187.411H181.714L224.48 146.024H295.429L332.419 181.833H485.909L531.255 137.943L530.682 137.369L485.54 181.012H332.787L295.797 145.245H224.152L181.386 186.591H53.7032L8.19273 230.644L8.76623 231.218Z" fill="url(#paint21_radial_7_483)"/>
<path d="M6.34942 228.675C5.12052 229.864 5.12052 231.792 6.34942 232.982C7.57833 234.171 9.58551 234.171 10.7735 232.982C12.0024 231.792 12.0024 229.864 10.7735 228.675C9.54455 227.485 7.53737 227.485 6.34942 228.675Z" fill="url(#paint22_radial_7_483)"/>
<path d="M528.634 135.605C529.863 134.416 531.87 134.416 533.058 135.605C534.287 136.795 534.287 138.723 533.058 139.912C531.829 141.102 529.822 141.102 528.634 139.912C527.405 138.723 527.405 136.795 528.634 135.605Z" fill="url(#paint23_radial_7_483)"/>
<path d="M27.7733 239.75L64.5995 204.146H179.011L223.661 160.954H292.725L348.968 215.344L349.542 214.77L293.053 160.175H223.292L178.642 203.326H64.2308L27.1998 239.176L27.7733 239.75Z" fill="url(#paint24_radial_7_483)"/>
<path d="M25.3975 237.207C24.1686 238.396 24.1686 240.324 25.3975 241.514C26.6264 242.703 28.6335 242.703 29.8215 241.514C31.0504 240.324 31.0504 238.396 29.8215 237.207C28.5926 236.017 26.5854 236.017 25.3975 237.207Z" fill="url(#paint25_radial_7_483)"/>
<path d="M351.385 212.801C352.614 213.991 352.614 215.918 351.385 217.108C350.156 218.297 348.149 218.297 346.961 217.108C345.732 215.918 345.732 213.991 346.961 212.801C348.19 211.612 350.197 211.612 351.385 212.801Z" fill="url(#paint26_radial_7_483)"/>
<path d="M152.179 346.93H195.027L276.627 268.011H493.323V267.191H276.299L194.659 346.15H152.507L121.948 316.577H39.1202L3.35908 281.998L2.74463 282.573L38.7925 317.397H121.621L152.179 346.93Z" fill="url(#paint27_radial_7_483)"/>
<path d="M5.36629 280.235C4.13738 279.045 2.13015 279.045 0.942209 280.235C-0.286696 281.424 -0.286696 283.352 0.942209 284.541C2.17111 285.731 4.17834 285.731 5.36629 284.541C6.59519 283.352 6.59519 281.424 5.36629 280.235Z" fill="url(#paint28_radial_7_483)"/>
<path d="M493.159 264.566C494.88 264.566 496.314 265.919 496.314 267.601C496.314 269.283 494.921 270.636 493.159 270.636C491.398 270.636 490.005 269.283 490.005 267.601C490.005 265.919 491.398 264.566 493.159 264.566Z" fill="url(#paint29_radial_7_483)"/>
<path d="M192.897 252.383H222.022V251.604H193.266L166.762 225.968H67.7537V226.788H166.435L192.897 252.383Z" fill="url(#paint30_radial_7_483)"/>
<path d="M67.9175 223.343C66.197 223.343 64.7633 224.696 64.7633 226.378C64.7633 228.06 66.1561 229.413 67.9175 229.413C69.6789 229.413 71.0717 228.06 71.0717 226.378C71.0717 224.696 69.6789 223.343 67.9175 223.343Z" fill="url(#paint31_radial_7_483)"/>
<path d="M221.858 248.938C223.579 248.938 225.012 250.291 225.012 251.973C225.012 253.655 223.62 255.009 221.858 255.009C220.097 255.009 218.704 253.655 218.704 251.973C218.704 250.291 220.097 248.938 221.858 248.938Z" fill="url(#paint32_radial_7_483)"/>
<path d="M194.822 227.28L235.335 188.067H293.995V187.247H235.008L194.208 226.706L194.822 227.28Z" fill="url(#paint33_radial_7_483)"/>
<path d="M192.406 224.737C191.177 225.927 191.177 227.855 192.406 229.044C193.634 230.234 195.642 230.234 196.83 229.044C198.059 227.855 198.059 225.927 196.83 224.737C195.601 223.548 193.594 223.548 192.406 224.737Z" fill="url(#paint34_radial_7_483)"/>
<path d="M293.831 184.622C295.552 184.622 296.985 185.975 296.985 187.657C296.985 189.339 295.593 190.692 293.831 190.692C292.07 190.692 290.677 189.339 290.677 187.657C290.677 185.975 292.07 184.622 293.831 184.622Z" fill="url(#paint35_radial_7_483)"/>
<path d="M221.981 231.218L250.287 203.818H302.147V202.998H249.959L221.367 230.644L221.981 231.218Z" fill="url(#paint36_radial_7_483)"/>
<path d="M219.564 228.675C218.335 229.864 218.335 231.792 219.564 232.982C220.793 234.171 222.8 234.171 223.988 232.982C225.217 231.792 225.217 229.864 223.988 228.675C222.759 227.485 220.752 227.485 219.564 228.675Z" fill="url(#paint37_radial_7_483)"/>
<path d="M301.983 200.373C303.703 200.373 305.137 201.726 305.137 203.408C305.137 205.09 303.744 206.443 301.983 206.443C300.221 206.443 298.829 205.09 298.829 203.408C298.829 201.726 300.221 200.373 301.983 200.373Z" fill="url(#paint38_radial_7_483)"/>
<path d="M454.49 345.863H490.62V346.684H454.49V345.863Z" fill="url(#paint39_radial_7_483)"/>
<path d="M454.654 343.197C452.933 343.197 451.5 344.551 451.5 346.232C451.5 347.914 452.892 349.268 454.654 349.268C456.415 349.268 457.808 347.914 457.808 346.232C457.808 344.551 456.415 343.197 454.654 343.197Z" fill="url(#paint40_radial_7_483)"/>
<path d="M490.456 343.197C492.176 343.197 493.61 344.551 493.61 346.232C493.61 347.914 492.217 349.268 490.456 349.268C488.694 349.268 487.302 347.914 487.302 346.232C487.302 344.551 488.694 343.197 490.456 343.197Z" fill="url(#paint41_radial_7_483)"/>
<path d="M242.053 351.073L278.511 315.797H395.543V314.977H278.183L241.48 350.498L242.053 351.073Z" fill="url(#paint42_radial_7_483)"/>
<path d="M239.636 348.529C238.408 349.719 238.408 351.647 239.636 352.836C240.865 354.026 242.873 354.026 244.06 352.836C245.289 351.647 245.289 349.719 244.06 348.529C242.832 347.34 240.824 347.34 239.636 348.529Z" fill="url(#paint43_radial_7_483)"/>
<path d="M395.38 312.352C397.1 312.352 398.534 313.705 398.534 315.387C398.534 317.069 397.141 318.422 395.38 318.422C393.618 318.422 392.225 317.069 392.225 315.387C392.225 313.705 393.618 312.352 395.38 312.352Z" fill="url(#paint44_radial_7_483)"/>
<path d="M434.336 495.702H513.682V494.881H434.705L374.242 436.472H305.014L265.607 398.366H191.054V399.187H265.28L304.645 437.251H373.915L434.336 495.702Z" fill="url(#paint45_radial_7_483)"/>
<path d="M191.177 395.741C189.456 395.741 188.022 397.095 188.022 398.776C188.022 400.458 189.415 401.812 191.177 401.812C192.938 401.812 194.331 400.458 194.331 398.776C194.331 397.095 192.938 395.741 191.177 395.741Z" fill="url(#paint46_radial_7_483)"/>
<path d="M513.518 492.256C515.239 492.256 516.672 493.61 516.672 495.292C516.672 496.973 515.28 498.327 513.518 498.327C511.757 498.327 510.364 496.973 510.364 495.292C510.364 493.61 511.757 492.256 513.518 492.256Z" fill="url(#paint47_radial_7_483)"/>
<path d="M517 406.201L517.574 405.626L470.671 360.302H330.453L303.294 386.553H218.213V387.373H303.662L330.821 361.081H470.343L517 406.201Z" fill="url(#paint48_radial_7_483)"/>
<path d="M218.335 383.928C216.615 383.928 215.181 385.282 215.181 386.963C215.181 388.645 216.574 389.999 218.335 389.999C220.097 389.999 221.49 388.645 221.49 386.963C221.49 385.282 220.097 383.928 218.335 383.928Z" fill="url(#paint49_radial_7_483)"/>
<path d="M519.376 403.658C520.605 404.847 520.605 406.775 519.376 407.964C518.147 409.154 516.14 409.154 514.952 407.964C513.723 406.775 513.723 404.847 514.952 403.658C516.181 402.468 518.188 402.468 519.376 403.658Z" fill="url(#paint50_radial_7_483)"/>
<path d="M439.088 455.627H504.629L527.774 433.272L527.159 432.698L504.261 454.848H439.456L390.546 407.554H310.544V408.375H390.218L439.088 455.627Z" fill="url(#paint51_radial_7_483)"/>
<path d="M310.708 404.929C308.988 404.929 307.554 406.283 307.554 407.964C307.554 409.646 308.947 411 310.708 411C312.47 411 313.862 409.646 313.862 407.964C313.862 406.283 312.47 404.929 310.708 404.929Z" fill="url(#paint52_radial_7_483)"/>
<path d="M525.111 430.934C526.34 429.745 528.347 429.745 529.535 430.934C530.764 432.124 530.764 434.052 529.535 435.241C528.306 436.431 526.299 436.431 525.111 435.241C523.882 434.052 523.882 432.124 525.111 430.934Z" fill="url(#paint53_radial_7_483)"/>
<path d="M457.439 424.782H490.62V423.961H457.767L420.449 387.866H337.703V388.686H420.081L457.439 424.782Z" fill="url(#paint54_radial_7_483)"/>
<path d="M337.867 385.24C336.146 385.24 334.713 386.594 334.713 388.276C334.713 389.958 336.105 391.311 337.867 391.311C339.628 391.311 341.021 389.958 341.021 388.276C341.021 386.594 339.628 385.24 337.867 385.24Z" fill="url(#paint55_radial_7_483)"/>
<path d="M490.456 421.336C492.176 421.336 493.61 422.69 493.61 424.372C493.61 426.053 492.217 427.407 490.456 427.407C488.694 427.407 487.302 426.053 487.302 424.372C487.302 422.69 488.694 421.336 490.456 421.336Z" fill="url(#paint56_radial_7_483)"/>
<path d="M525.111 347.135L525.725 346.561L465.263 288.069H306.448V288.889H464.895L525.111 347.135Z" fill="url(#paint57_radial_7_483)"/>
<path d="M306.612 285.444C304.891 285.444 303.458 286.797 303.458 288.479C303.458 290.161 304.85 291.514 306.612 291.514C308.373 291.514 309.766 290.161 309.766 288.479C309.766 286.797 308.373 285.444 306.612 285.444Z" fill="url(#paint58_radial_7_483)"/>
<path d="M527.528 344.592C528.757 345.781 528.757 347.709 527.528 348.899C526.299 350.088 524.292 350.088 523.104 348.899C521.875 347.709 521.875 345.781 523.104 344.592C524.333 343.402 526.34 343.402 527.528 344.592Z" fill="url(#paint59_radial_7_483)"/>
<path d="M176.348 321.047H201.786L276.135 249.143H506.882V248.364H275.807L201.458 320.227H176.676L147.469 292.007H67.3849L43.79 269.201L43.2165 269.775L67.0162 292.827H147.141L176.348 321.047Z" fill="url(#paint60_radial_7_483)"/>
<path d="M45.8382 267.478C44.6093 266.288 42.6021 266.288 41.4141 267.478C40.1852 268.667 40.1852 270.595 41.4141 271.785C42.643 272.974 44.6503 272.974 45.8382 271.785C47.0671 270.595 47.0671 268.667 45.8382 267.478Z" fill="url(#paint61_radial_7_483)"/>
<path d="M506.759 245.698C508.48 245.698 509.914 247.051 509.914 248.733C509.914 250.415 508.521 251.768 506.759 251.768C504.998 251.768 503.605 250.415 503.605 248.733C503.605 247.051 504.998 245.698 506.759 245.698Z" fill="url(#paint62_radial_7_483)"/>
<path d="M178.724 299.062H205.883L277.692 229.618H519.13V228.798H277.323L205.514 298.241H179.051L158.365 278.225H73.4886L51.9418 257.388L51.3683 257.962L73.1199 279.045H157.996L178.724 299.062Z" fill="url(#paint63_radial_7_483)"/>
<path d="M53.9899 255.624C52.761 254.434 50.7538 254.434 49.5659 255.624C48.337 256.813 48.337 258.741 49.5659 259.931C50.7948 261.12 52.8019 261.12 53.9899 259.931C55.2188 258.741 55.2188 256.813 53.9899 255.624Z" fill="url(#paint64_radial_7_483)"/>
<path d="M518.966 226.173C520.687 226.173 522.121 227.527 522.121 229.208C522.121 230.89 520.728 232.244 518.966 232.244C517.205 232.244 515.812 230.89 515.812 229.208C515.812 227.527 517.205 226.173 518.966 226.173Z" fill="url(#paint65_radial_7_483)"/>
<path d="M180.198 270.965L180.813 270.39L152.917 243.442H66.1151V244.221H152.589L180.198 270.965Z" fill="url(#paint66_radial_7_483)"/>
<path d="M66.279 240.775C64.5585 240.775 63.1248 242.129 63.1248 243.811C63.1248 245.492 64.5176 246.846 66.279 246.846C68.0404 246.846 69.4332 245.492 69.4332 243.811C69.4332 242.129 68.0404 240.775 66.279 240.775Z" fill="url(#paint67_radial_7_483)"/>
<path d="M182.615 268.421C183.844 269.611 183.844 271.539 182.615 272.728C181.386 273.918 179.379 273.918 178.191 272.728C176.962 271.539 176.962 269.611 178.191 268.421C179.42 267.232 181.427 267.232 182.615 268.421Z" fill="url(#paint68_radial_7_483)"/>
<path d="M252.13 91.9212H337.58L402.835 28.8356L402.221 28.2614L337.252 91.1008H252.13V91.9212Z" fill="url(#paint69_radial_7_483)"/>
<path d="M252.294 88.4757C250.574 88.4757 249.14 89.8293 249.14 91.511C249.14 93.1928 250.533 94.5464 252.294 94.5464C254.056 94.5464 255.448 93.1928 255.448 91.511C255.448 89.8293 254.056 88.4757 252.294 88.4757Z" fill="url(#paint70_radial_7_483)"/>
<path d="M400.213 26.4976C401.442 25.3081 403.449 25.3081 404.637 26.4976C405.866 27.6871 405.866 29.615 404.637 30.8045C403.408 31.994 401.401 31.994 400.213 30.8045C398.984 29.615 398.984 27.6871 400.213 26.4976Z" fill="url(#paint71_radial_7_483)"/>
<path d="M366.664 92.7006L408.57 52.1749H524.21V51.3545H408.201L366.05 92.1263L366.664 92.7006Z" fill="url(#paint72_radial_7_483)"/>
<path d="M364.247 90.1574C363.018 91.3469 363.018 93.2748 364.247 94.4643C365.476 95.6538 367.483 95.6538 368.671 94.4643C369.9 93.2748 369.9 91.3469 368.671 90.1574C367.442 88.9679 365.435 88.9679 364.247 90.1574Z" fill="url(#paint73_radial_7_483)"/>
<path d="M524.046 48.7294C525.766 48.7294 527.2 50.083 527.2 51.7647C527.2 53.4464 525.807 54.8 524.046 54.8C522.284 54.8 520.892 53.4464 520.892 51.7647C520.892 50.083 522.284 48.7294 524.046 48.7294Z" fill="url(#paint74_radial_7_483)"/>
</g>
</g>
<defs>
<radialGradient id="paint0_radial_7_483" cx="0" cy="0" r="1" gradientUnits="userSpaceOnUse" gradientTransform="translate(344.077 268.573) rotate(180) scale(306.673 307.081)">
<stop offset="0.4" stop-color="#CFA935"/>
<stop offset="0.6" stop-color="#CFA935"/>
<stop offset="0.7" stop-color="#9C8028"/>
<stop offset="0.8" stop-color="#392F0E"/>
<stop offset="0.9" stop-color="#1A1506"/>
<stop offset="1"/>
</radialGradient>
<radialGradient id="paint1_radial_7_483" cx="0" cy="0" r="1" gradientUnits="userSpaceOnUse" gradientTransform="translate(344.077 268.573) rotate(180) scale(306.674 307.081)">
<stop offset="0.4" stop-color="#CFA935"/>
<stop offset="0.6" stop-color="#CFA935"/>
<stop offset="0.7" stop-color="#9C8028"/>
<stop offset="0.8" stop-color="#392F0E"/>
<stop offset="0.9" stop-color="#1A1506"/>
<stop offset="1"/>
</radialGradient>
<radialGradient id="paint2_radial_7_483" cx="0" cy="0" r="1" gradientUnits="userSpaceOnUse" gradientTransform="translate(344.077 268.532) rotate(180) scale(306.644 307.052)">
<stop offset="0.4" stop-color="#CFA935"/>
<stop offset="0.6" stop-color="#CFA935"/>
<stop offset="0.7" stop-color="#9C8028"/>
<stop offset="0.8" stop-color="#392F0E"/>
<stop offset="0.9" stop-color="#1A1506"/>
<stop offset="1"/>
</radialGradient>
<radialGradient id="paint3_radial_7_483" cx="0" cy="0" r="1" gradientUnits="userSpaceOnUse" gradientTransform="translate(344.077 268.573) rotate(180) scale(306.673 307.081)">
<stop offset="0.4" stop-color="#CFA935"/>
<stop offset="0.6" stop-color="#CFA935"/>
<stop offset="0.7" stop-color="#9C8028"/>
<stop offset="0.8" stop-color="#392F0E"/>
<stop offset="0.9" stop-color="#1A1506"/>
<stop offset="1"/>
</radialGradient>
<radialGradient id="paint4_radial_7_483" cx="0" cy="0" r="1" gradientUnits="userSpaceOnUse" gradientTransform="translate(344.076 268.573) rotate(180) scale(306.672 307.081)">
<stop offset="0.4" stop-color="#CFA935"/>
<stop offset="0.6" stop-color="#CFA935"/>
<stop offset="0.7" stop-color="#9C8028"/>
<stop offset="0.8" stop-color="#392F0E"/>
<stop offset="0.9" stop-color="#1A1506"/>
<stop offset="1"/>
</radialGradient>
<radialGradient id="paint5_radial_7_483" cx="0" cy="0" r="1" gradientUnits="userSpaceOnUse" gradientTransform="translate(344.077 268.572) rotate(180) scale(306.673 307.082)">
<stop offset="0.4" stop-color="#CFA935"/>
<stop offset="0.6" stop-color="#CFA935"/>
<stop offset="0.7" stop-color="#9C8028"/>
<stop offset="0.8" stop-color="#392F0E"/>
<stop offset="0.9" stop-color="#1A1506"/>
<stop offset="1"/>
</radialGradient>
<radialGradient id="paint6_radial_7_483" cx="0" cy="0" r="1" gradientUnits="userSpaceOnUse" gradientTransform="translate(344.077 268.573) rotate(180) scale(306.673 307.081)">
<stop offset="0.4" stop-color="#CFA935"/>
<stop offset="0.6" stop-color="#CFA935"/>
<stop offset="0.7" stop-color="#9C8028"/>
<stop offset="0.8" stop-color="#392F0E"/>
<stop offset="0.9" stop-color="#1A1506"/>
<stop offset="1"/>
</radialGradient>
<radialGradient id="paint7_radial_7_483" cx="0" cy="0" r="1" gradientUnits="userSpaceOnUse" gradientTransform="translate(344.078 268.573) rotate(180) scale(306.674 307.081)">
<stop offset="0.4" stop-color="#CFA935"/>
<stop offset="0.6" stop-color="#CFA935"/>
<stop offset="0.7" stop-color="#9C8028"/>
<stop offset="0.8" stop-color="#392F0E"/>
<stop offset="0.9" stop-color="#1A1506"/>
<stop offset="1"/>
</radialGradient>
<radialGradient id="paint8_radial_7_483" cx="0" cy="0" r="1" gradientUnits="userSpaceOnUse" gradientTransform="translate(344.077 268.573) rotate(180) scale(306.673 307.081)">
<stop offset="0.4" stop-color="#CFA935"/>
<stop offset="0.6" stop-color="#CFA935"/>
<stop offset="0.7" stop-color="#9C8028"/>
<stop offset="0.8" stop-color="#392F0E"/>
<stop offset="0.9" stop-color="#1A1506"/>
<stop offset="1"/>
</radialGradient>
<radialGradient id="paint9_radial_7_483" cx="0" cy="0" r="1" gradientUnits="userSpaceOnUse" gradientTransform="translate(344.077 268.573) rotate(180) scale(306.673 307.081)">
<stop offset="0.4" stop-color="#CFA935"/>
<stop offset="0.6" stop-color="#CFA935"/>
<stop offset="0.7" stop-color="#9C8028"/>
<stop offset="0.8" stop-color="#392F0E"/>
<stop offset="0.9" stop-color="#1A1506"/>
<stop offset="1"/>
</radialGradient>
<radialGradient id="paint10_radial_7_483" cx="0" cy="0" r="1" gradientUnits="userSpaceOnUse" gradientTransform="translate(344.076 268.573) rotate(180) scale(306.7 307.11)">
<stop offset="0.4" stop-color="#CFA935"/>
<stop offset="0.6" stop-color="#CFA935"/>
<stop offset="0.7" stop-color="#9C8028"/>
<stop offset="0.8" stop-color="#392F0E"/>
<stop offset="0.9" stop-color="#1A1506"/>
<stop offset="1"/>
</radialGradient>
<radialGradient id="paint11_radial_7_483" cx="0" cy="0" r="1" gradientUnits="userSpaceOnUse" gradientTransform="translate(344.077 268.573) rotate(180) scale(306.673 307.081)">
<stop offset="0.4" stop-color="#CFA935"/>
<stop offset="0.6" stop-color="#CFA935"/>
<stop offset="0.7" stop-color="#9C8028"/>
<stop offset="0.8" stop-color="#392F0E"/>
<stop offset="0.9" stop-color="#1A1506"/>
<stop offset="1"/>
</radialGradient>
<radialGradient id="paint12_radial_7_483" cx="0" cy="0" r="1" gradientUnits="userSpaceOnUse" gradientTransform="translate(344.077 268.573) rotate(180) scale(306.673 307.081)">
<stop offset="0.4" stop-color="#CFA935"/>
<stop offset="0.6" stop-color="#CFA935"/>
<stop offset="0.7" stop-color="#9C8028"/>
<stop offset="0.8" stop-color="#392F0E"/>
<stop offset="0.9" stop-color="#1A1506"/>
<stop offset="1"/>
</radialGradient>
<radialGradient id="paint13_radial_7_483" cx="0" cy="0" r="1" gradientUnits="userSpaceOnUse" gradientTransform="translate(344.077 268.573) rotate(180) scale(306.673 307.081)">
<stop offset="0.4" stop-color="#CFA935"/>
<stop offset="0.6" stop-color="#CFA935"/>
<stop offset="0.7" stop-color="#9C8028"/>
<stop offset="0.8" stop-color="#392F0E"/>
<stop offset="0.9" stop-color="#1A1506"/>
<stop offset="1"/>
</radialGradient>
<radialGradient id="paint14_radial_7_483" cx="0" cy="0" r="1" gradientUnits="userSpaceOnUse" gradientTransform="translate(344.078 268.573) rotate(180) scale(306.674 307.081)">
<stop offset="0.4" stop-color="#CFA935"/>
<stop offset="0.6" stop-color="#CFA935"/>
<stop offset="0.7" stop-color="#9C8028"/>
<stop offset="0.8" stop-color="#392F0E"/>
<stop offset="0.9" stop-color="#1A1506"/>
<stop offset="1"/>
</radialGradient>
<radialGradient id="paint15_radial_7_483" cx="0" cy="0" r="1" gradientUnits="userSpaceOnUse" gradientTransform="translate(344.077 268.573) rotate(180) scale(306.673 307.081)">
<stop offset="0.4" stop-color="#CFA935"/>
<stop offset="0.6" stop-color="#CFA935"/>
<stop offset="0.7" stop-color="#9C8028"/>
<stop offset="0.8" stop-color="#392F0E"/>
<stop offset="0.9" stop-color="#1A1506"/>
<stop offset="1"/>
</radialGradient>
<radialGradient id="paint16_radial_7_483" cx="0" cy="0" r="1" gradientUnits="userSpaceOnUse" gradientTransform="translate(344.075 268.573) rotate(180) scale(306.671 307.081)">
<stop offset="0.4" stop-color="#CFA935"/>
<stop offset="0.6" stop-color="#CFA935"/>
<stop offset="0.7" stop-color="#9C8028"/>
<stop offset="0.8" stop-color="#392F0E"/>
<stop offset="0.9" stop-color="#1A1506"/>
<stop offset="1"/>
</radialGradient>
<radialGradient id="paint17_radial_7_483" cx="0" cy="0" r="1" gradientUnits="userSpaceOnUse" gradientTransform="translate(344.077 268.573) rotate(180) scale(306.673 307.081)">
<stop offset="0.4" stop-color="#CFA935"/>
<stop offset="0.6" stop-color="#CFA935"/>
<stop offset="0.7" stop-color="#9C8028"/>
<stop offset="0.8" stop-color="#392F0E"/>
<stop offset="0.9" stop-color="#1A1506"/>
<stop offset="1"/>
</radialGradient>
<radialGradient id="paint18_radial_7_483" cx="0" cy="0" r="1" gradientUnits="userSpaceOnUse" gradientTransform="translate(344.077 268.573) rotate(180) scale(306.673 307.081)">
<stop offset="0.4" stop-color="#CFA935"/>
<stop offset="0.6" stop-color="#CFA935"/>
<stop offset="0.7" stop-color="#9C8028"/>
<stop offset="0.8" stop-color="#392F0E"/>
<stop offset="0.9" stop-color="#1A1506"/>
<stop offset="1"/>
</radialGradient>
<radialGradient id="paint19_radial_7_483" cx="0" cy="0" r="1" gradientUnits="userSpaceOnUse" gradientTransform="translate(344.076 268.573) rotate(180) scale(306.672 307.081)">
<stop offset="0.4" stop-color="#CFA935"/>
<stop offset="0.6" stop-color="#CFA935"/>
<stop offset="0.7" stop-color="#9C8028"/>
<stop offset="0.8" stop-color="#392F0E"/>
<stop offset="0.9" stop-color="#1A1506"/>
<stop offset="1"/>
</radialGradient>
<radialGradient id="paint20_radial_7_483" cx="0" cy="0" r="1" gradientUnits="userSpaceOnUse" gradientTransform="translate(344.076 268.573) rotate(180) scale(306.672 307.081)">
<stop offset="0.4" stop-color="#CFA935"/>
<stop offset="0.6" stop-color="#CFA935"/>
<stop offset="0.7" stop-color="#9C8028"/>
<stop offset="0.8" stop-color="#392F0E"/>
<stop offset="0.9" stop-color="#1A1506"/>
<stop offset="1"/>
</radialGradient>
<radialGradient id="paint21_radial_7_483" cx="0" cy="0" r="1" gradientUnits="userSpaceOnUse" gradientTransform="translate(344.077 268.573) rotate(180) scale(306.673 307.081)">
<stop offset="0.4" stop-color="#CFA935"/>
<stop offset="0.6" stop-color="#CFA935"/>
<stop offset="0.7" stop-color="#9C8028"/>
<stop offset="0.8" stop-color="#392F0E"/>
<stop offset="0.9" stop-color="#1A1506"/>
<stop offset="1"/>
</radialGradient>
<radialGradient id="paint22_radial_7_483" cx="0" cy="0" r="1" gradientUnits="userSpaceOnUse" gradientTransform="translate(344.075 268.573) rotate(180) scale(306.672 307.081)">
<stop offset="0.4" stop-color="#CFA935"/>
<stop offset="0.6" stop-color="#CFA935"/>
<stop offset="0.7" stop-color="#9C8028"/>
<stop offset="0.8" stop-color="#392F0E"/>
<stop offset="0.9" stop-color="#1A1506"/>
<stop offset="1"/>
</radialGradient>
<radialGradient id="paint23_radial_7_483" cx="0" cy="0" r="1" gradientUnits="userSpaceOnUse" gradientTransform="translate(344.077 268.573) rotate(180) scale(306.673 307.081)">
<stop offset="0.4" stop-color="#CFA935"/>
<stop offset="0.6" stop-color="#CFA935"/>
<stop offset="0.7" stop-color="#9C8028"/>
<stop offset="0.8" stop-color="#392F0E"/>
<stop offset="0.9" stop-color="#1A1506"/>
<stop offset="1"/>
</radialGradient>
<radialGradient id="paint24_radial_7_483" cx="0" cy="0" r="1" gradientUnits="userSpaceOnUse" gradientTransform="translate(344.077 268.573) rotate(180) scale(306.673 307.081)">
<stop offset="0.4" stop-color="#CFA935"/>
<stop offset="0.6" stop-color="#CFA935"/>
<stop offset="0.7" stop-color="#9C8028"/>
<stop offset="0.8" stop-color="#392F0E"/>
<stop offset="0.9" stop-color="#1A1506"/>
<stop offset="1"/>
</radialGradient>
<radialGradient id="paint25_radial_7_483" cx="0" cy="0" r="1" gradientUnits="userSpaceOnUse" gradientTransform="translate(344.075 268.573) rotate(180) scale(306.672 307.081)">
<stop offset="0.4" stop-color="#CFA935"/>
<stop offset="0.6" stop-color="#CFA935"/>
<stop offset="0.7" stop-color="#9C8028"/>
<stop offset="0.8" stop-color="#392F0E"/>
<stop offset="0.9" stop-color="#1A1506"/>
<stop offset="1"/>
</radialGradient>
<radialGradient id="paint26_radial_7_483" cx="0" cy="0" r="1" gradientUnits="userSpaceOnUse" gradientTransform="translate(344.077 268.573) rotate(180) scale(306.674 307.081)">
<stop offset="0.4" stop-color="#CFA935"/>
<stop offset="0.6" stop-color="#CFA935"/>
<stop offset="0.7" stop-color="#9C8028"/>
<stop offset="0.8" stop-color="#392F0E"/>
<stop offset="0.9" stop-color="#1A1506"/>
<stop offset="1"/>
</radialGradient>
<radialGradient id="paint27_radial_7_483" cx="0" cy="0" r="1" gradientUnits="userSpaceOnUse" gradientTransform="translate(344.077 268.573) rotate(180) scale(306.673 307.081)">
<stop offset="0.4" stop-color="#CFA935"/>
<stop offset="0.6" stop-color="#CFA935"/>
<stop offset="0.7" stop-color="#9C8028"/>
<stop offset="0.8" stop-color="#392F0E"/>
<stop offset="0.9" stop-color="#1A1506"/>
<stop offset="1"/>
</radialGradient>
<radialGradient id="paint28_radial_7_483" cx="0" cy="0" r="1" gradientUnits="userSpaceOnUse" gradientTransform="translate(344.078 268.573) rotate(180) scale(306.674 307.081)">
<stop offset="0.4" stop-color="#CFA935"/>
<stop offset="0.6" stop-color="#CFA935"/>
<stop offset="0.7" stop-color="#9C8028"/>
<stop offset="0.8" stop-color="#392F0E"/>
<stop offset="0.9" stop-color="#1A1506"/>
<stop offset="1"/>
</radialGradient>
<radialGradient id="paint29_radial_7_483" cx="0" cy="0" r="1" gradientUnits="userSpaceOnUse" gradientTransform="translate(344.077 268.573) rotate(180) scale(306.673 307.081)">
<stop offset="0.4" stop-color="#CFA935"/>
<stop offset="0.6" stop-color="#CFA935"/>
<stop offset="0.7" stop-color="#9C8028"/>
<stop offset="0.8" stop-color="#392F0E"/>
<stop offset="0.9" stop-color="#1A1506"/>
<stop offset="1"/>
</radialGradient>
<radialGradient id="paint30_radial_7_483" cx="0" cy="0" r="1" gradientUnits="userSpaceOnUse" gradientTransform="translate(344.077 268.573) rotate(180) scale(306.673 307.081)">
<stop offset="0.4" stop-color="#CFA935"/>
<stop offset="0.6" stop-color="#CFA935"/>
<stop offset="0.7" stop-color="#9C8028"/>
<stop offset="0.8" stop-color="#392F0E"/>
<stop offset="0.9" stop-color="#1A1506"/>
<stop offset="1"/>
</radialGradient>
<radialGradient id="paint31_radial_7_483" cx="0" cy="0" r="1" gradientUnits="userSpaceOnUse" gradientTransform="translate(344.077 268.573) rotate(180) scale(306.674 307.081)">
<stop offset="0.4" stop-color="#CFA935"/>
<stop offset="0.6" stop-color="#CFA935"/>
<stop offset="0.7" stop-color="#9C8028"/>
<stop offset="0.8" stop-color="#392F0E"/>
<stop offset="0.9" stop-color="#1A1506"/>
<stop offset="1"/>
</radialGradient>
<radialGradient id="paint32_radial_7_483" cx="0" cy="0" r="1" gradientUnits="userSpaceOnUse" gradientTransform="translate(344.077 268.573) rotate(180) scale(306.674 307.081)">
<stop offset="0.4" stop-color="#CFA935"/>
<stop offset="0.6" stop-color="#CFA935"/>
<stop offset="0.7" stop-color="#9C8028"/>
<stop offset="0.8" stop-color="#392F0E"/>
<stop offset="0.9" stop-color="#1A1506"/>
<stop offset="1"/>
</radialGradient>
<radialGradient id="paint33_radial_7_483" cx="0" cy="0" r="1" gradientUnits="userSpaceOnUse" gradientTransform="translate(344.077 268.573) rotate(180) scale(306.673 307.081)">
<stop offset="0.4" stop-color="#CFA935"/>
<stop offset="0.6" stop-color="#CFA935"/>
<stop offset="0.7" stop-color="#9C8028"/>
<stop offset="0.8" stop-color="#392F0E"/>
<stop offset="0.9" stop-color="#1A1506"/>
<stop offset="1"/>
</radialGradient>
<radialGradient id="paint34_radial_7_483" cx="0" cy="0" r="1" gradientUnits="userSpaceOnUse" gradientTransform="translate(344.077 268.573) rotate(180) scale(306.674 307.081)">
<stop offset="0.4" stop-color="#CFA935"/>
<stop offset="0.6" stop-color="#CFA935"/>
<stop offset="0.7" stop-color="#9C8028"/>
<stop offset="0.8" stop-color="#392F0E"/>
<stop offset="0.9" stop-color="#1A1506"/>
<stop offset="1"/>
</radialGradient>
<radialGradient id="paint35_radial_7_483" cx="0" cy="0" r="1" gradientUnits="userSpaceOnUse" gradientTransform="translate(344.077 268.573) rotate(180) scale(306.674 307.081)">
<stop offset="0.4" stop-color="#CFA935"/>
<stop offset="0.6" stop-color="#CFA935"/>
<stop offset="0.7" stop-color="#9C8028"/>
<stop offset="0.8" stop-color="#392F0E"/>
<stop offset="0.9" stop-color="#1A1506"/>
<stop offset="1"/>
</radialGradient>
<radialGradient id="paint36_radial_7_483" cx="0" cy="0" r="1" gradientUnits="userSpaceOnUse" gradientTransform="translate(344.077 268.573) rotate(180) scale(306.673 307.081)">
<stop offset="0.4" stop-color="#CFA935"/>
<stop offset="0.6" stop-color="#CFA935"/>
<stop offset="0.7" stop-color="#9C8028"/>
<stop offset="0.8" stop-color="#392F0E"/>
<stop offset="0.9" stop-color="#1A1506"/>
<stop offset="1"/>
</radialGradient>
<radialGradient id="paint37_radial_7_483" cx="0" cy="0" r="1" gradientUnits="userSpaceOnUse" gradientTransform="translate(344.077 268.573) rotate(180) scale(306.673 307.081)">
<stop offset="0.4" stop-color="#CFA935"/>
<stop offset="0.6" stop-color="#CFA935"/>
<stop offset="0.7" stop-color="#9C8028"/>
<stop offset="0.8" stop-color="#392F0E"/>
<stop offset="0.9" stop-color="#1A1506"/>
<stop offset="1"/>
</radialGradient>
<radialGradient id="paint38_radial_7_483" cx="0" cy="0" r="1" gradientUnits="userSpaceOnUse" gradientTransform="translate(344.077 268.573) rotate(180) scale(306.672 307.081)">
<stop offset="0.4" stop-color="#CFA935"/>
<stop offset="0.6" stop-color="#CFA935"/>
<stop offset="0.7" stop-color="#9C8028"/>
<stop offset="0.8" stop-color="#392F0E"/>
<stop offset="0.9" stop-color="#1A1506"/>
<stop offset="1"/>
</radialGradient>
<radialGradient id="paint39_radial_7_483" cx="0" cy="0" r="1" gradientUnits="userSpaceOnUse" gradientTransform="translate(344.077 268.532) rotate(180) scale(306.702 307.11)">
<stop offset="0.4" stop-color="#CFA935"/>
<stop offset="0.6" stop-color="#CFA935"/>
<stop offset="0.7" stop-color="#9C8028"/>
<stop offset="0.8" stop-color="#392F0E"/>
<stop offset="0.9" stop-color="#1A1506"/>
<stop offset="1"/>
</radialGradient>
<radialGradient id="paint40_radial_7_483" cx="0" cy="0" r="1" gradientUnits="userSpaceOnUse" gradientTransform="translate(344.077 268.573) rotate(180) scale(306.673 307.081)">
<stop offset="0.4" stop-color="#CFA935"/>
<stop offset="0.6" stop-color="#CFA935"/>
<stop offset="0.7" stop-color="#9C8028"/>
<stop offset="0.8" stop-color="#392F0E"/>
<stop offset="0.9" stop-color="#1A1506"/>
<stop offset="1"/>
</radialGradient>
<radialGradient id="paint41_radial_7_483" cx="0" cy="0" r="1" gradientUnits="userSpaceOnUse" gradientTransform="translate(344.077 268.573) rotate(180) scale(306.673 307.081)">
<stop offset="0.4" stop-color="#CFA935"/>
<stop offset="0.6" stop-color="#CFA935"/>
<stop offset="0.7" stop-color="#9C8028"/>
<stop offset="0.8" stop-color="#392F0E"/>
<stop offset="0.9" stop-color="#1A1506"/>
<stop offset="1"/>
</radialGradient>
<radialGradient id="paint42_radial_7_483" cx="0" cy="0" r="1" gradientUnits="userSpaceOnUse" gradientTransform="translate(344.077 268.573) rotate(180) scale(306.673 307.081)">
<stop offset="0.4" stop-color="#CFA935"/>
<stop offset="0.6" stop-color="#CFA935"/>
<stop offset="0.7" stop-color="#9C8028"/>
<stop offset="0.8" stop-color="#392F0E"/>
<stop offset="0.9" stop-color="#1A1506"/>
<stop offset="1"/>
</radialGradient>
<radialGradient id="paint43_radial_7_483" cx="0" cy="0" r="1" gradientUnits="userSpaceOnUse" gradientTransform="translate(344.077 268.573) rotate(180) scale(306.673 307.081)">
<stop offset="0.4" stop-color="#CFA935"/>
<stop offset="0.6" stop-color="#CFA935"/>
<stop offset="0.7" stop-color="#9C8028"/>
<stop offset="0.8" stop-color="#392F0E"/>
<stop offset="0.9" stop-color="#1A1506"/>
<stop offset="1"/>
</radialGradient>
<radialGradient id="paint44_radial_7_483" cx="0" cy="0" r="1" gradientUnits="userSpaceOnUse" gradientTransform="translate(344.077 268.573) rotate(180) scale(306.673 307.081)">
<stop offset="0.4" stop-color="#CFA935"/>
<stop offset="0.6" stop-color="#CFA935"/>
<stop offset="0.7" stop-color="#9C8028"/>
<stop offset="0.8" stop-color="#392F0E"/>
<stop offset="0.9" stop-color="#1A1506"/>
<stop offset="1"/>
</radialGradient>
<radialGradient id="paint45_radial_7_483" cx="0" cy="0" r="1" gradientUnits="userSpaceOnUse" gradientTransform="translate(344.077 268.573) rotate(180) scale(306.673 307.081)">
<stop offset="0.4" stop-color="#CFA935"/>
<stop offset="0.6" stop-color="#CFA935"/>
<stop offset="0.7" stop-color="#9C8028"/>
<stop offset="0.8" stop-color="#392F0E"/>
<stop offset="0.9" stop-color="#1A1506"/>
<stop offset="1"/>
</radialGradient>
<radialGradient id="paint46_radial_7_483" cx="0" cy="0" r="1" gradientUnits="userSpaceOnUse" gradientTransform="translate(344.077 268.573) rotate(180) scale(306.672 307.081)">
<stop offset="0.4" stop-color="#CFA935"/>
<stop offset="0.6" stop-color="#CFA935"/>
<stop offset="0.7" stop-color="#9C8028"/>
<stop offset="0.8" stop-color="#392F0E"/>
<stop offset="0.9" stop-color="#1A1506"/>
<stop offset="1"/>
</radialGradient>
<radialGradient id="paint47_radial_7_483" cx="0" cy="0" r="1" gradientUnits="userSpaceOnUse" gradientTransform="translate(344.077 268.601) rotate(180) scale(306.673 307.082)">
<stop offset="0.4" stop-color="#CFA935"/>
<stop offset="0.6" stop-color="#CFA935"/>
<stop offset="0.7" stop-color="#9C8028"/>
<stop offset="0.8" stop-color="#392F0E"/>
<stop offset="0.9" stop-color="#1A1506"/>
<stop offset="1"/>
</radialGradient>
<radialGradient id="paint48_radial_7_483" cx="0" cy="0" r="1" gradientUnits="userSpaceOnUse" gradientTransform="translate(344.077 268.573) rotate(180) scale(306.673 307.081)">
<stop offset="0.4" stop-color="#CFA935"/>
<stop offset="0.6" stop-color="#CFA935"/>
<stop offset="0.7" stop-color="#9C8028"/>
<stop offset="0.8" stop-color="#392F0E"/>
<stop offset="0.9" stop-color="#1A1506"/>
<stop offset="1"/>
</radialGradient>
<radialGradient id="paint49_radial_7_483" cx="0" cy="0" r="1" gradientUnits="userSpaceOnUse" gradientTransform="translate(344.077 268.573) rotate(180) scale(306.672 307.081)">
<stop offset="0.4" stop-color="#CFA935"/>
<stop offset="0.6" stop-color="#CFA935"/>
<stop offset="0.7" stop-color="#9C8028"/>
<stop offset="0.8" stop-color="#392F0E"/>
<stop offset="0.9" stop-color="#1A1506"/>
<stop offset="1"/>
</radialGradient>
<radialGradient id="paint50_radial_7_483" cx="0" cy="0" r="1" gradientUnits="userSpaceOnUse" gradientTransform="translate(344.077 268.573) rotate(180) scale(306.673 307.081)">
<stop offset="0.4" stop-color="#CFA935"/>
<stop offset="0.6" stop-color="#CFA935"/>
<stop offset="0.7" stop-color="#9C8028"/>
<stop offset="0.8" stop-color="#392F0E"/>
<stop offset="0.9" stop-color="#1A1506"/>
<stop offset="1"/>
</radialGradient>
<radialGradient id="paint51_radial_7_483" cx="0" cy="0" r="1" gradientUnits="userSpaceOnUse" gradientTransform="translate(344.077 268.573) rotate(180) scale(306.673 307.081)">
<stop offset="0.4" stop-color="#CFA935"/>
<stop offset="0.6" stop-color="#CFA935"/>
<stop offset="0.7" stop-color="#9C8028"/>
<stop offset="0.8" stop-color="#392F0E"/>
<stop offset="0.9" stop-color="#1A1506"/>
<stop offset="1"/>
</radialGradient>
<radialGradient id="paint52_radial_7_483" cx="0" cy="0" r="1" gradientUnits="userSpaceOnUse" gradientTransform="translate(344.077 268.573) rotate(180) scale(306.644 307.052)">
<stop offset="0.4" stop-color="#CFA935"/>
<stop offset="0.6" stop-color="#CFA935"/>
<stop offset="0.7" stop-color="#9C8028"/>
<stop offset="0.8" stop-color="#392F0E"/>
<stop offset="0.9" stop-color="#1A1506"/>
<stop offset="1"/>
</radialGradient>
<radialGradient id="paint53_radial_7_483" cx="0" cy="0" r="1" gradientUnits="userSpaceOnUse" gradientTransform="translate(344.077 268.573) rotate(180) scale(306.673 307.081)">
<stop offset="0.4" stop-color="#CFA935"/>
<stop offset="0.6" stop-color="#CFA935"/>
<stop offset="0.7" stop-color="#9C8028"/>
<stop offset="0.8" stop-color="#392F0E"/>
<stop offset="0.9" stop-color="#1A1506"/>
<stop offset="1"/>
</radialGradient>
<radialGradient id="paint54_radial_7_483" cx="0" cy="0" r="1" gradientUnits="userSpaceOnUse" gradientTransform="translate(344.077 268.573) rotate(180) scale(306.673 307.081)">
<stop offset="0.4" stop-color="#CFA935"/>
<stop offset="0.6" stop-color="#CFA935"/>
<stop offset="0.7" stop-color="#9C8028"/>
<stop offset="0.8" stop-color="#392F0E"/>
<stop offset="0.9" stop-color="#1A1506"/>
<stop offset="1"/>
</radialGradient>
<radialGradient id="paint55_radial_7_483" cx="0" cy="0" r="1" gradientUnits="userSpaceOnUse" gradientTransform="translate(344.077 268.573) rotate(180) scale(306.673 307.081)">
<stop offset="0.4" stop-color="#CFA935"/>
<stop offset="0.6" stop-color="#CFA935"/>
<stop offset="0.7" stop-color="#9C8028"/>
<stop offset="0.8" stop-color="#392F0E"/>
<stop offset="0.9" stop-color="#1A1506"/>
<stop offset="1"/>
</radialGradient>
<radialGradient id="paint56_radial_7_483" cx="0" cy="0" r="1" gradientUnits="userSpaceOnUse" gradientTransform="translate(344.077 268.573) rotate(180) scale(306.673 307.082)">
<stop offset="0.4" stop-color="#CFA935"/>
<stop offset="0.6" stop-color="#CFA935"/>
<stop offset="0.7" stop-color="#9C8028"/>
<stop offset="0.8" stop-color="#392F0E"/>
<stop offset="0.9" stop-color="#1A1506"/>
<stop offset="1"/>
</radialGradient>
<radialGradient id="paint57_radial_7_483" cx="0" cy="0" r="1" gradientUnits="userSpaceOnUse" gradientTransform="translate(344.077 268.573) rotate(180) scale(306.673 307.081)">
<stop offset="0.4" stop-color="#CFA935"/>
<stop offset="0.6" stop-color="#CFA935"/>
<stop offset="0.7" stop-color="#9C8028"/>
<stop offset="0.8" stop-color="#392F0E"/>
<stop offset="0.9" stop-color="#1A1506"/>
<stop offset="1"/>
</radialGradient>
<radialGradient id="paint58_radial_7_483" cx="0" cy="0" r="1" gradientUnits="userSpaceOnUse" gradientTransform="translate(344.077 268.573) rotate(180) scale(306.672 307.081)">
<stop offset="0.4" stop-color="#CFA935"/>
<stop offset="0.6" stop-color="#CFA935"/>
<stop offset="0.7" stop-color="#9C8028"/>
<stop offset="0.8" stop-color="#392F0E"/>
<stop offset="0.9" stop-color="#1A1506"/>
<stop offset="1"/>
</radialGradient>
<radialGradient id="paint59_radial_7_483" cx="0" cy="0" r="1" gradientUnits="userSpaceOnUse" gradientTransform="translate(344.077 268.573) rotate(180) scale(306.673 307.081)">
<stop offset="0.4" stop-color="#CFA935"/>
<stop offset="0.6" stop-color="#CFA935"/>
<stop offset="0.7" stop-color="#9C8028"/>
<stop offset="0.8" stop-color="#392F0E"/>
<stop offset="0.9" stop-color="#1A1506"/>
<stop offset="1"/>
</radialGradient>
<radialGradient id="paint60_radial_7_483" cx="0" cy="0" r="1" gradientUnits="userSpaceOnUse" gradientTransform="translate(344.077 268.573) rotate(180) scale(306.673 307.081)">
<stop offset="0.4" stop-color="#CFA935"/>
<stop offset="0.6" stop-color="#CFA935"/>
<stop offset="0.7" stop-color="#9C8028"/>
<stop offset="0.8" stop-color="#392F0E"/>
<stop offset="0.9" stop-color="#1A1506"/>
<stop offset="1"/>
</radialGradient>
<radialGradient id="paint61_radial_7_483" cx="0" cy="0" r="1" gradientUnits="userSpaceOnUse" gradientTransform="translate(344.078 268.573) rotate(180) scale(306.674 307.081)">
<stop offset="0.4" stop-color="#CFA935"/>
<stop offset="0.6" stop-color="#CFA935"/>
<stop offset="0.7" stop-color="#9C8028"/>
<stop offset="0.8" stop-color="#392F0E"/>
<stop offset="0.9" stop-color="#1A1506"/>
<stop offset="1"/>
</radialGradient>
<radialGradient id="paint62_radial_7_483" cx="0" cy="0" r="1" gradientUnits="userSpaceOnUse" gradientTransform="translate(344.077 268.573) rotate(180) scale(306.673 307.081)">
<stop offset="0.4" stop-color="#CFA935"/>
<stop offset="0.6" stop-color="#CFA935"/>
<stop offset="0.7" stop-color="#9C8028"/>
<stop offset="0.8" stop-color="#392F0E"/>
<stop offset="0.9" stop-color="#1A1506"/>
<stop offset="1"/>
</radialGradient>
<radialGradient id="paint63_radial_7_483" cx="0" cy="0" r="1" gradientUnits="userSpaceOnUse" gradientTransform="translate(344.077 268.573) rotate(180) scale(306.673 307.081)">
<stop offset="0.4" stop-color="#CFA935"/>
<stop offset="0.6" stop-color="#CFA935"/>
<stop offset="0.7" stop-color="#9C8028"/>
<stop offset="0.8" stop-color="#392F0E"/>
<stop offset="0.9" stop-color="#1A1506"/>
<stop offset="1"/>
</radialGradient>
<radialGradient id="paint64_radial_7_483" cx="0" cy="0" r="1" gradientUnits="userSpaceOnUse" gradientTransform="translate(344.076 268.573) rotate(180) scale(306.672 307.081)">
<stop offset="0.4" stop-color="#CFA935"/>
<stop offset="0.6" stop-color="#CFA935"/>
<stop offset="0.7" stop-color="#9C8028"/>
<stop offset="0.8" stop-color="#392F0E"/>
<stop offset="0.9" stop-color="#1A1506"/>
<stop offset="1"/>
</radialGradient>
<radialGradient id="paint65_radial_7_483" cx="0" cy="0" r="1" gradientUnits="userSpaceOnUse" gradientTransform="translate(344.077 268.573) rotate(180) scale(306.673 307.081)">
<stop offset="0.4" stop-color="#CFA935"/>
<stop offset="0.6" stop-color="#CFA935"/>
<stop offset="0.7" stop-color="#9C8028"/>
<stop offset="0.8" stop-color="#392F0E"/>
<stop offset="0.9" stop-color="#1A1506"/>
<stop offset="1"/>
</radialGradient>
<radialGradient id="paint66_radial_7_483" cx="0" cy="0" r="1" gradientUnits="userSpaceOnUse" gradientTransform="translate(344.077 268.573) rotate(180) scale(306.673 307.081)">
<stop offset="0.4" stop-color="#CFA935"/>
<stop offset="0.6" stop-color="#CFA935"/>
<stop offset="0.7" stop-color="#9C8028"/>
<stop offset="0.8" stop-color="#392F0E"/>
<stop offset="0.9" stop-color="#1A1506"/>
<stop offset="1"/>
</radialGradient>
<radialGradient id="paint67_radial_7_483" cx="0" cy="0" r="1" gradientUnits="userSpaceOnUse" gradientTransform="translate(344.077 268.573) rotate(180) scale(306.674 307.081)">
<stop offset="0.4" stop-color="#CFA935"/>
<stop offset="0.6" stop-color="#CFA935"/>
<stop offset="0.7" stop-color="#9C8028"/>
<stop offset="0.8" stop-color="#392F0E"/>
<stop offset="0.9" stop-color="#1A1506"/>
<stop offset="1"/>
</radialGradient>
<radialGradient id="paint68_radial_7_483" cx="0" cy="0" r="1" gradientUnits="userSpaceOnUse" gradientTransform="translate(344.077 268.573) rotate(180) scale(306.673 307.081)">
<stop offset="0.4" stop-color="#CFA935"/>
<stop offset="0.6" stop-color="#CFA935"/>
<stop offset="0.7" stop-color="#9C8028"/>
<stop offset="0.8" stop-color="#392F0E"/>
<stop offset="0.9" stop-color="#1A1506"/>
<stop offset="1"/>
</radialGradient>
<radialGradient id="paint69_radial_7_483" cx="0" cy="0" r="1" gradientUnits="userSpaceOnUse" gradientTransform="translate(344.077 268.573) rotate(180) scale(306.673 307.081)">
<stop offset="0.4" stop-color="#CFA935"/>
<stop offset="0.6" stop-color="#CFA935"/>
<stop offset="0.7" stop-color="#9C8028"/>
<stop offset="0.8" stop-color="#392F0E"/>
<stop offset="0.9" stop-color="#1A1506"/>
<stop offset="1"/>
</radialGradient>
<radialGradient id="paint70_radial_7_483" cx="0" cy="0" r="1" gradientUnits="userSpaceOnUse" gradientTransform="translate(344.077 268.573) rotate(180) scale(306.674 307.081)">
<stop offset="0.4" stop-color="#CFA935"/>
<stop offset="0.6" stop-color="#CFA935"/>
<stop offset="0.7" stop-color="#9C8028"/>
<stop offset="0.8" stop-color="#392F0E"/>
<stop offset="0.9" stop-color="#1A1506"/>
<stop offset="1"/>
</radialGradient>
<radialGradient id="paint71_radial_7_483" cx="0" cy="0" r="1" gradientUnits="userSpaceOnUse" gradientTransform="translate(344.077 268.573) rotate(180) scale(306.674 307.081)">
<stop offset="0.4" stop-color="#CFA935"/>
<stop offset="0.6" stop-color="#CFA935"/>
<stop offset="0.7" stop-color="#9C8028"/>
<stop offset="0.8" stop-color="#392F0E"/>
<stop offset="0.9" stop-color="#1A1506"/>
<stop offset="1"/>
</radialGradient>
<radialGradient id="paint72_radial_7_483" cx="0" cy="0" r="1" gradientUnits="userSpaceOnUse" gradientTransform="translate(344.077 268.573) rotate(180) scale(306.673 307.081)">
<stop offset="0.4" stop-color="#CFA935"/>
<stop offset="0.6" stop-color="#CFA935"/>
<stop offset="0.7" stop-color="#9C8028"/>
<stop offset="0.8" stop-color="#392F0E"/>
<stop offset="0.9" stop-color="#1A1506"/>
<stop offset="1"/>
</radialGradient>
<radialGradient id="paint73_radial_7_483" cx="0" cy="0" r="1" gradientUnits="userSpaceOnUse" gradientTransform="translate(344.077 268.573) rotate(180) scale(306.673 307.081)">
<stop offset="0.4" stop-color="#CFA935"/>
<stop offset="0.6" stop-color="#CFA935"/>
<stop offset="0.7" stop-color="#9C8028"/>
<stop offset="0.8" stop-color="#392F0E"/>
<stop offset="0.9" stop-color="#1A1506"/>
<stop offset="1"/>
</radialGradient>
<radialGradient id="paint74_radial_7_483" cx="0" cy="0" r="1" gradientUnits="userSpaceOnUse" gradientTransform="translate(344.077 268.532) rotate(180) scale(306.673 307.081)">
<stop offset="0.4" stop-color="#CFA935"/>
<stop offset="0.6" stop-color="#CFA935"/>
<stop offset="0.7" stop-color="#9C8028"/>
<stop offset="0.8" stop-color="#392F0E"/>
<stop offset="0.9" stop-color="#1A1506"/>
<stop offset="1"/>
</radialGradient>
<clipPath id="clip0_7_483">
<rect width="534" height="519" fill="white" transform="matrix(-1 0 0 1 534 0)"/>
</clipPath>
</defs>
</svg>
